M48
; DRILL file {KiCad (6.0.1)} date Tue Oct 25 11:35:48 2022
; FORMAT={-:-/ absolute / metric / decimal}
; #@! TF.CreationDate,2022-10-25T11:35:48-03:00
; #@! TF.GenerationSoftware,Kicad,Pcbnew,(6.0.1)
; #@! TF.FileFunction,Plated,1,2,PTH
FMAT,2
METRIC
; #@! TA.AperFunction,Plated,PTH,ViaDrill
T1C0.400
; #@! TA.AperFunction,Plated,PTH,ViaDrill
T2C0.700
; #@! TA.AperFunction,Plated,PTH,ComponentDrill
T3C0.800
; #@! TA.AperFunction,Plated,PTH,ComponentDrill
T4C0.900
; #@! TA.AperFunction,Plated,PTH,ComponentDrill
T5C1.000
; #@! TA.AperFunction,Plated,PTH,ComponentDrill
T6C1.020
; #@! TA.AperFunction,Plated,PTH,ComponentDrill
T7C1.100
%
G90
G05
T1
X106.68Y-114.046
X124.206Y-109.982
X124.714Y-134.874
X125.984Y-106.172
X128.27Y-139.7
X139.446Y-125.222
T2
X98.552Y-69.342
X106.68Y-121.666
X110.49Y-91.186
X114.554Y-127.0
X114.808Y-74.422
X115.062Y-78.74
X120.396Y-97.028
X121.666Y-87.884
X121.92Y-92.71
X122.682Y-127.254
X122.936Y-55.626
X122.936Y-63.5
X123.698Y-106.172
X123.952Y-75.438
X124.206Y-92.202
X124.714Y-69.342
X124.968Y-124.714
X125.25Y-87.63
X126.492Y-75.184
X126.746Y-109.474
X127.762Y-99.822
X130.81Y-103.124
X132.588Y-51.562
X133.096Y-54.102
X133.604Y-125.222
X134.366Y-97.79
X134.366Y-100.838
X135.128Y-91.694
X136.144Y-104.902
X137.16Y-103.124
X138.684Y-87.122
X139.446Y-105.41
X140.462Y-100.33
X140.462Y-103.378
X141.478Y-54.356
X142.24Y-99.314
X142.748Y-103.378
X143.51Y-97.282
X145.288Y-86.36
X146.05Y-95.758
X146.304Y-100.076
X153.924Y-56.134
X154.178Y-106.68
X155.956Y-103.378
X156.972Y-109.22
X156.972Y-115.824
X156.972Y-128.524
X159.512Y-58.928
X161.544Y-91.44
X162.306Y-103.124
X162.306Y-108.204
X171.704Y-91.44
X180.086Y-63.5
X181.356Y-74.168
T3
X134.366Y-62.738
X134.366Y-72.898
X138.938Y-62.738
X138.938Y-72.898
X143.51Y-62.738
X143.51Y-72.898
X158.75Y-69.596
X159.512Y-76.454
X159.766Y-61.468
X168.91Y-69.596
X169.672Y-76.454
X169.926Y-61.468
T4
X176.53Y-67.564
X176.53Y-68.834
X176.53Y-70.104
X176.53Y-71.374
T5
X117.119Y-49.032
X117.119Y-51.572
X117.119Y-54.112
X117.119Y-56.652
X120.117Y-100.838
X120.117Y-103.378
X120.117Y-105.918
X120.117Y-108.458
X120.117Y-110.998
X120.117Y-113.538
X120.117Y-116.078
X120.478Y-71.399
X120.478Y-73.939
X120.478Y-76.479
X120.478Y-79.019
X120.478Y-81.559
X120.478Y-84.099
X132.359Y-132.11
X132.359Y-134.65
X132.359Y-137.19
X132.359Y-139.73
X132.359Y-142.27
X133.604Y-109.718
X133.604Y-112.258
X136.144Y-109.718
X136.144Y-112.258
X138.684Y-109.718
X138.684Y-112.258
X141.224Y-109.718
X141.224Y-112.258
X143.764Y-109.718
X143.764Y-112.258
X159.766Y-94.996
X162.306Y-94.996
X164.846Y-94.996
X167.386Y-94.996
X169.926Y-94.996
X172.466Y-94.996
X175.006Y-94.996
T6
X130.302Y-46.482
X130.302Y-49.022
X130.302Y-51.562
X130.302Y-54.102
X130.302Y-56.642
X130.302Y-59.182
X130.302Y-61.722
X130.302Y-64.262
X130.302Y-66.802
X130.302Y-69.342
X130.302Y-71.882
X130.302Y-74.422
X130.302Y-76.962
X130.302Y-79.502
X130.302Y-82.042
X130.302Y-84.582
X130.302Y-87.122
X130.302Y-89.662
X130.302Y-92.202
X130.302Y-94.742
X136.652Y-94.512
X139.192Y-94.512
X141.732Y-94.512
X148.082Y-46.482
X148.082Y-49.022
X148.082Y-51.562
X148.082Y-54.102
X148.082Y-56.642
X148.082Y-59.182
X148.082Y-61.722
X148.082Y-64.262
X148.082Y-66.802
X148.082Y-69.342
X148.082Y-71.882
X148.082Y-74.422
X148.082Y-76.962
X148.082Y-79.502
X148.082Y-82.042
X148.082Y-84.582
X148.082Y-87.122
X148.082Y-89.662
X148.082Y-92.202
X148.082Y-94.742
T7
X158.802Y-48.804
X158.802Y-53.304
X165.302Y-48.804
X165.302Y-53.304
X173.788Y-48.804
X173.788Y-53.304
X180.288Y-48.804
X180.288Y-53.304
T0
M30
