%TF.GenerationSoftware,KiCad,Pcbnew,(6.0.1)*%
%TF.CreationDate,2022-10-25T11:35:38-03:00*%
%TF.ProjectId,Circuito esquem_tico,43697263-7569-4746-9f20-65737175656d,rev?*%
%TF.SameCoordinates,Original*%
%TF.FileFunction,Legend,Bot*%
%TF.FilePolarity,Positive*%
%FSLAX46Y46*%
G04 Gerber Fmt 4.6, Leading zero omitted, Abs format (unit mm)*
G04 Created by KiCad (PCBNEW (6.0.1)) date 2022-10-25 11:35:38*
%MOMM*%
%LPD*%
G01*
G04 APERTURE LIST*
%ADD10C,0.150000*%
G04 APERTURE END LIST*
D10*
X174688285Y-131373619D02*
X174640666Y-131326000D01*
X174545428Y-131278380D01*
X174307333Y-131278380D01*
X174212095Y-131326000D01*
X174164476Y-131373619D01*
X174116857Y-131468857D01*
X174116857Y-131564095D01*
X174164476Y-131706952D01*
X174735904Y-132278380D01*
X174116857Y-132278380D01*
X173497809Y-131278380D02*
X173402571Y-131278380D01*
X173307333Y-131326000D01*
X173259714Y-131373619D01*
X173212095Y-131468857D01*
X173164476Y-131659333D01*
X173164476Y-131897428D01*
X173212095Y-132087904D01*
X173259714Y-132183142D01*
X173307333Y-132230761D01*
X173402571Y-132278380D01*
X173497809Y-132278380D01*
X173593047Y-132230761D01*
X173640666Y-132183142D01*
X173688285Y-132087904D01*
X173735904Y-131897428D01*
X173735904Y-131659333D01*
X173688285Y-131468857D01*
X173640666Y-131373619D01*
X173593047Y-131326000D01*
X173497809Y-131278380D01*
X172783523Y-131373619D02*
X172735904Y-131326000D01*
X172640666Y-131278380D01*
X172402571Y-131278380D01*
X172307333Y-131326000D01*
X172259714Y-131373619D01*
X172212095Y-131468857D01*
X172212095Y-131564095D01*
X172259714Y-131706952D01*
X172831142Y-132278380D01*
X172212095Y-132278380D01*
X171831142Y-131373619D02*
X171783523Y-131326000D01*
X171688285Y-131278380D01*
X171450190Y-131278380D01*
X171354952Y-131326000D01*
X171307333Y-131373619D01*
X171259714Y-131468857D01*
X171259714Y-131564095D01*
X171307333Y-131706952D01*
X171878761Y-132278380D01*
X171259714Y-132278380D01*
X188958380Y-129484380D02*
X188958380Y-128484380D01*
X188482190Y-128960571D02*
X188148857Y-128960571D01*
X188006000Y-129484380D02*
X188482190Y-129484380D01*
X188482190Y-128484380D01*
X188006000Y-128484380D01*
X187672666Y-128484380D02*
X187053619Y-128484380D01*
X187386952Y-128865333D01*
X187244095Y-128865333D01*
X187148857Y-128912952D01*
X187101238Y-128960571D01*
X187053619Y-129055809D01*
X187053619Y-129293904D01*
X187101238Y-129389142D01*
X187148857Y-129436761D01*
X187244095Y-129484380D01*
X187529809Y-129484380D01*
X187625047Y-129436761D01*
X187672666Y-129389142D01*
X186672666Y-128579619D02*
X186625047Y-128532000D01*
X186529809Y-128484380D01*
X186291714Y-128484380D01*
X186196476Y-128532000D01*
X186148857Y-128579619D01*
X186101238Y-128674857D01*
X186101238Y-128770095D01*
X186148857Y-128912952D01*
X186720285Y-129484380D01*
X186101238Y-129484380D01*
X185148857Y-129484380D02*
X185720285Y-129484380D01*
X185434571Y-129484380D02*
X185434571Y-128484380D01*
X185529809Y-128627238D01*
X185625047Y-128722476D01*
X185720285Y-128770095D01*
X184720285Y-129484380D02*
X184720285Y-128484380D01*
X184148857Y-129484380D02*
X184577428Y-128912952D01*
X184148857Y-128484380D02*
X184720285Y-129055809D01*
X182958380Y-129103428D02*
X182196476Y-129103428D01*
X181101238Y-128484380D02*
X180529809Y-128484380D01*
X180815523Y-129484380D02*
X180815523Y-128484380D01*
X180006000Y-128484380D02*
X179815523Y-128484380D01*
X179720285Y-128532000D01*
X179625047Y-128627238D01*
X179577428Y-128817714D01*
X179577428Y-129151047D01*
X179625047Y-129341523D01*
X179720285Y-129436761D01*
X179815523Y-129484380D01*
X180006000Y-129484380D01*
X180101238Y-129436761D01*
X180196476Y-129341523D01*
X180244095Y-129151047D01*
X180244095Y-128817714D01*
X180196476Y-128627238D01*
X180101238Y-128532000D01*
X180006000Y-128484380D01*
X179815523Y-128103428D02*
X179958380Y-128246285D01*
X179148857Y-129484380D02*
X179148857Y-128484380D01*
X178767904Y-128484380D01*
X178672666Y-128532000D01*
X178625047Y-128579619D01*
X178577428Y-128674857D01*
X178577428Y-128817714D01*
X178625047Y-128912952D01*
X178672666Y-128960571D01*
X178767904Y-129008190D01*
X179148857Y-129008190D01*
X178148857Y-129484380D02*
X178148857Y-128484380D01*
X177101238Y-129389142D02*
X177148857Y-129436761D01*
X177291714Y-129484380D01*
X177386952Y-129484380D01*
X177529809Y-129436761D01*
X177625047Y-129341523D01*
X177672666Y-129246285D01*
X177720285Y-129055809D01*
X177720285Y-128912952D01*
X177672666Y-128722476D01*
X177625047Y-128627238D01*
X177529809Y-128532000D01*
X177386952Y-128484380D01*
X177291714Y-128484380D01*
X177148857Y-128532000D01*
X177101238Y-128579619D01*
X176482190Y-128484380D02*
X176291714Y-128484380D01*
X176196476Y-128532000D01*
X176101238Y-128627238D01*
X176053619Y-128817714D01*
X176053619Y-129151047D01*
X176101238Y-129341523D01*
X176196476Y-129436761D01*
X176291714Y-129484380D01*
X176482190Y-129484380D01*
X176577428Y-129436761D01*
X176672666Y-129341523D01*
X176720285Y-129151047D01*
X176720285Y-128817714D01*
X176672666Y-128627238D01*
X176577428Y-128532000D01*
X176482190Y-128484380D01*
X175672666Y-129436761D02*
X175529809Y-129484380D01*
X175291714Y-129484380D01*
X175196476Y-129436761D01*
X175148857Y-129389142D01*
X175101238Y-129293904D01*
X175101238Y-129198666D01*
X175148857Y-129103428D01*
X175196476Y-129055809D01*
X175291714Y-129008190D01*
X175482190Y-128960571D01*
X175577428Y-128912952D01*
X175625047Y-128865333D01*
X175672666Y-128770095D01*
X175672666Y-128674857D01*
X175625047Y-128579619D01*
X175577428Y-128532000D01*
X175482190Y-128484380D01*
X175244095Y-128484380D01*
X175101238Y-128532000D01*
X173910761Y-128960571D02*
X173577428Y-128960571D01*
X173434571Y-129484380D02*
X173910761Y-129484380D01*
X173910761Y-128484380D01*
X173434571Y-128484380D01*
X173006000Y-129484380D02*
X173006000Y-128484380D01*
X172672666Y-129198666D01*
X172339333Y-128484380D01*
X172339333Y-129484380D01*
X171101238Y-128960571D02*
X170767904Y-128960571D01*
X170625047Y-129484380D02*
X171101238Y-129484380D01*
X171101238Y-128484380D01*
X170625047Y-128484380D01*
X169720285Y-129484380D02*
X170196476Y-129484380D01*
X170196476Y-128484380D01*
X169386952Y-128960571D02*
X169053619Y-128960571D01*
X168910761Y-129484380D02*
X169386952Y-129484380D01*
X169386952Y-128484380D01*
X168910761Y-128484380D01*
X168625047Y-128484380D02*
X168053619Y-128484380D01*
X168339333Y-129484380D02*
X168339333Y-128484380D01*
X167148857Y-129484380D02*
X167482190Y-129008190D01*
X167720285Y-129484380D02*
X167720285Y-128484380D01*
X167339333Y-128484380D01*
X167244095Y-128532000D01*
X167196476Y-128579619D01*
X167148857Y-128674857D01*
X167148857Y-128817714D01*
X167196476Y-128912952D01*
X167244095Y-128960571D01*
X167339333Y-129008190D01*
X167720285Y-129008190D01*
X166529809Y-128484380D02*
X166339333Y-128484380D01*
X166244095Y-128532000D01*
X166148857Y-128627238D01*
X166101238Y-128817714D01*
X166101238Y-129151047D01*
X166148857Y-129341523D01*
X166244095Y-129436761D01*
X166339333Y-129484380D01*
X166529809Y-129484380D01*
X166625047Y-129436761D01*
X166720285Y-129341523D01*
X166767904Y-129151047D01*
X166767904Y-128817714D01*
X166720285Y-128627238D01*
X166625047Y-128532000D01*
X166529809Y-128484380D01*
X166625047Y-128246285D02*
X166434571Y-128103428D01*
X166244095Y-128246285D01*
X165672666Y-129484380D02*
X165672666Y-128484380D01*
X165101238Y-129484380D01*
X165101238Y-128484380D01*
X164625047Y-129484380D02*
X164625047Y-128484380D01*
X163577428Y-129389142D02*
X163625047Y-129436761D01*
X163767904Y-129484380D01*
X163863142Y-129484380D01*
X164006000Y-129436761D01*
X164101238Y-129341523D01*
X164148857Y-129246285D01*
X164196476Y-129055809D01*
X164196476Y-128912952D01*
X164148857Y-128722476D01*
X164101238Y-128627238D01*
X164006000Y-128532000D01*
X163863142Y-128484380D01*
X163767904Y-128484380D01*
X163625047Y-128532000D01*
X163577428Y-128579619D01*
X163196476Y-129198666D02*
X162720285Y-129198666D01*
X163291714Y-129484380D02*
X162958380Y-128484380D01*
X162625047Y-129484380D01*
X161577428Y-128579619D02*
X161529809Y-128532000D01*
X161434571Y-128484380D01*
X161196476Y-128484380D01*
X161101238Y-128532000D01*
X161053619Y-128579619D01*
X161006000Y-128674857D01*
X161006000Y-128770095D01*
X161053619Y-128912952D01*
X161625047Y-129484380D01*
X161006000Y-129484380D01*
X182315428Y-126690380D02*
X182315428Y-125690380D01*
X181934476Y-125690380D01*
X181839238Y-125738000D01*
X181791619Y-125785619D01*
X181744000Y-125880857D01*
X181744000Y-126023714D01*
X181791619Y-126118952D01*
X181839238Y-126166571D01*
X181934476Y-126214190D01*
X182315428Y-126214190D01*
X180839238Y-126690380D02*
X181315428Y-126690380D01*
X181315428Y-125690380D01*
X180553523Y-126404666D02*
X180077333Y-126404666D01*
X180648761Y-126690380D02*
X180315428Y-125690380D01*
X179982095Y-126690380D01*
X179077333Y-126595142D02*
X179124952Y-126642761D01*
X179267809Y-126690380D01*
X179363047Y-126690380D01*
X179505904Y-126642761D01*
X179601142Y-126547523D01*
X179648761Y-126452285D01*
X179696380Y-126261809D01*
X179696380Y-126118952D01*
X179648761Y-125928476D01*
X179601142Y-125833238D01*
X179505904Y-125738000D01*
X179363047Y-125690380D01*
X179267809Y-125690380D01*
X179124952Y-125738000D01*
X179077333Y-125785619D01*
X178696380Y-126404666D02*
X178220190Y-126404666D01*
X178791619Y-126690380D02*
X178458285Y-125690380D01*
X178124952Y-126690380D01*
X176458285Y-126595142D02*
X176505904Y-126642761D01*
X176648761Y-126690380D01*
X176744000Y-126690380D01*
X176886857Y-126642761D01*
X176982095Y-126547523D01*
X177029714Y-126452285D01*
X177077333Y-126261809D01*
X177077333Y-126118952D01*
X177029714Y-125928476D01*
X176982095Y-125833238D01*
X176886857Y-125738000D01*
X176744000Y-125690380D01*
X176648761Y-125690380D01*
X176505904Y-125738000D01*
X176458285Y-125785619D01*
X175839238Y-125690380D02*
X175648761Y-125690380D01*
X175553523Y-125738000D01*
X175458285Y-125833238D01*
X175410666Y-126023714D01*
X175410666Y-126357047D01*
X175458285Y-126547523D01*
X175553523Y-126642761D01*
X175648761Y-126690380D01*
X175839238Y-126690380D01*
X175934476Y-126642761D01*
X176029714Y-126547523D01*
X176077333Y-126357047D01*
X176077333Y-126023714D01*
X176029714Y-125833238D01*
X175934476Y-125738000D01*
X175839238Y-125690380D01*
X174982095Y-126690380D02*
X174982095Y-125690380D01*
X174410666Y-126690380D01*
X174410666Y-125690380D01*
X173934476Y-126166571D02*
X173601142Y-126166571D01*
X173458285Y-126690380D02*
X173934476Y-126690380D01*
X173934476Y-125690380D01*
X173458285Y-125690380D01*
X172458285Y-126595142D02*
X172505904Y-126642761D01*
X172648761Y-126690380D01*
X172744000Y-126690380D01*
X172886857Y-126642761D01*
X172982095Y-126547523D01*
X173029714Y-126452285D01*
X173077333Y-126261809D01*
X173077333Y-126118952D01*
X173029714Y-125928476D01*
X172982095Y-125833238D01*
X172886857Y-125738000D01*
X172744000Y-125690380D01*
X172648761Y-125690380D01*
X172505904Y-125738000D01*
X172458285Y-125785619D01*
X172172571Y-125690380D02*
X171601142Y-125690380D01*
X171886857Y-126690380D02*
X171886857Y-125690380D01*
X171267809Y-126690380D02*
X171267809Y-125690380D01*
X170934476Y-125690380D02*
X170601142Y-126690380D01*
X170267809Y-125690380D01*
X169934476Y-126690380D02*
X169934476Y-125690380D01*
X169458285Y-126690380D02*
X169458285Y-125690380D01*
X169220190Y-125690380D01*
X169077333Y-125738000D01*
X168982095Y-125833238D01*
X168934476Y-125928476D01*
X168886857Y-126118952D01*
X168886857Y-126261809D01*
X168934476Y-126452285D01*
X168982095Y-126547523D01*
X169077333Y-126642761D01*
X169220190Y-126690380D01*
X169458285Y-126690380D01*
X168505904Y-126404666D02*
X168029714Y-126404666D01*
X168601142Y-126690380D02*
X168267809Y-125690380D01*
X167934476Y-126690380D01*
X167601142Y-126690380D02*
X167601142Y-125690380D01*
X167363047Y-125690380D01*
X167220190Y-125738000D01*
X167124952Y-125833238D01*
X167077333Y-125928476D01*
X167029714Y-126118952D01*
X167029714Y-126261809D01*
X167077333Y-126452285D01*
X167124952Y-126547523D01*
X167220190Y-126642761D01*
X167363047Y-126690380D01*
X167601142Y-126690380D01*
X166601142Y-126166571D02*
X166267809Y-126166571D01*
X166124952Y-126690380D02*
X166601142Y-126690380D01*
X166601142Y-125690380D01*
X166124952Y-125690380D01*
M02*
