%TF.GenerationSoftware,KiCad,Pcbnew,(6.0.1)*%
%TF.CreationDate,2022-10-25T11:35:38-03:00*%
%TF.ProjectId,Circuito esquem_tico,43697263-7569-4746-9f20-65737175656d,rev?*%
%TF.SameCoordinates,Original*%
%TF.FileFunction,Soldermask,Bot*%
%TF.FilePolarity,Negative*%
%FSLAX46Y46*%
G04 Gerber Fmt 4.6, Leading zero omitted, Abs format (unit mm)*
G04 Created by KiCad (PCBNEW (6.0.1)) date 2022-10-25 11:35:38*
%MOMM*%
%LPD*%
G01*
G04 APERTURE LIST*
G04 Aperture macros list*
%AMRoundRect*
0 Rectangle with rounded corners*
0 $1 Rounding radius*
0 $2 $3 $4 $5 $6 $7 $8 $9 X,Y pos of 4 corners*
0 Add a 4 corners polygon primitive as box body*
4,1,4,$2,$3,$4,$5,$6,$7,$8,$9,$2,$3,0*
0 Add four circle primitives for the rounded corners*
1,1,$1+$1,$2,$3*
1,1,$1+$1,$4,$5*
1,1,$1+$1,$6,$7*
1,1,$1+$1,$8,$9*
0 Add four rect primitives between the rounded corners*
20,1,$1+$1,$2,$3,$4,$5,0*
20,1,$1+$1,$4,$5,$6,$7,0*
20,1,$1+$1,$6,$7,$8,$9,0*
20,1,$1+$1,$8,$9,$2,$3,0*%
G04 Aperture macros list end*
%ADD10C,3.500000*%
%ADD11C,1.600000*%
%ADD12O,1.600000X1.600000*%
%ADD13R,1.700000X1.700000*%
%ADD14O,1.700000X1.700000*%
%ADD15RoundRect,0.250000X0.600000X-0.600000X0.600000X0.600000X-0.600000X0.600000X-0.600000X-0.600000X0*%
%ADD16C,1.700000*%
%ADD17C,2.000000*%
%ADD18R,1.800000X1.070000*%
%ADD19O,1.800000X1.070000*%
%ADD20O,1.800000X1.800000*%
%ADD21O,1.500000X1.500000*%
G04 APERTURE END LIST*
D10*
%TO.C,REF\u002A\u002A*%
X89662000Y-38608000D03*
%TD*%
%TO.C,REF\u002A\u002A*%
X179578000Y-39370000D03*
%TD*%
%TO.C,REF\u002A\u002A*%
X88646000Y-145034000D03*
%TD*%
D11*
%TO.C,R6*%
X159512000Y-76454000D03*
D12*
X169672000Y-76454000D03*
%TD*%
D13*
%TO.C,J3*%
X117119000Y-49032000D03*
D14*
X117119000Y-51572000D03*
X117119000Y-54112000D03*
X117119000Y-56652000D03*
%TD*%
D11*
%TO.C,R5*%
X159766000Y-61468000D03*
D12*
X169926000Y-61468000D03*
%TD*%
D13*
%TO.C,J4*%
X120478000Y-71399000D03*
D14*
X120478000Y-73939000D03*
X120478000Y-76479000D03*
X120478000Y-79019000D03*
X120478000Y-81559000D03*
X120478000Y-84099000D03*
%TD*%
D15*
%TO.C,J6*%
X133604000Y-112258500D03*
D16*
X133604000Y-109718500D03*
X136144000Y-112258500D03*
X136144000Y-109718500D03*
X138684000Y-112258500D03*
X138684000Y-109718500D03*
X141224000Y-112258500D03*
X141224000Y-109718500D03*
X143764000Y-112258500D03*
X143764000Y-109718500D03*
%TD*%
D11*
%TO.C,R4*%
X158750000Y-69596000D03*
D12*
X168910000Y-69596000D03*
%TD*%
D13*
%TO.C,J1*%
X120117000Y-116078000D03*
D14*
X120117000Y-113538000D03*
X120117000Y-110998000D03*
X120117000Y-108458000D03*
X120117000Y-105918000D03*
X120117000Y-103378000D03*
X120117000Y-100838000D03*
%TD*%
D17*
%TO.C,SW2*%
X165302000Y-48804000D03*
X158802000Y-48804000D03*
X158802000Y-53304000D03*
X165302000Y-53304000D03*
%TD*%
D13*
%TO.C,J2*%
X132359000Y-132110000D03*
D14*
X132359000Y-134650000D03*
X132359000Y-137190000D03*
X132359000Y-139730000D03*
X132359000Y-142270000D03*
%TD*%
D18*
%TO.C,D1*%
X176530000Y-71374000D03*
D19*
X176530000Y-70104000D03*
X176530000Y-68834000D03*
X176530000Y-67564000D03*
%TD*%
D11*
%TO.C,R1*%
X143510000Y-72898000D03*
D12*
X143510000Y-62738000D03*
%TD*%
D11*
%TO.C,R2*%
X138938000Y-72898000D03*
D12*
X138938000Y-62738000D03*
%TD*%
D20*
%TO.C,U1*%
X136467000Y-46612000D03*
D21*
X141617000Y-49642000D03*
X136767000Y-49642000D03*
D20*
X141917000Y-46612000D03*
D14*
X130302000Y-46482000D03*
X130302000Y-49022000D03*
D13*
X130302000Y-51562000D03*
D14*
X130302000Y-54102000D03*
X130302000Y-56642000D03*
X130302000Y-59182000D03*
X130302000Y-61722000D03*
D13*
X130302000Y-64262000D03*
D14*
X130302000Y-66802000D03*
X130302000Y-69342000D03*
X130302000Y-71882000D03*
X130302000Y-74422000D03*
D13*
X130302000Y-76962000D03*
D14*
X130302000Y-79502000D03*
X130302000Y-82042000D03*
X130302000Y-84582000D03*
X130302000Y-87122000D03*
D13*
X130302000Y-89662000D03*
D14*
X130302000Y-92202000D03*
X130302000Y-94742000D03*
X148082000Y-94742000D03*
X148082000Y-92202000D03*
D13*
X148082000Y-89662000D03*
D14*
X148082000Y-87122000D03*
X148082000Y-84582000D03*
X148082000Y-82042000D03*
X148082000Y-79502000D03*
D13*
X148082000Y-76962000D03*
D14*
X148082000Y-74422000D03*
X148082000Y-71882000D03*
X148082000Y-69342000D03*
X148082000Y-66802000D03*
D13*
X148082000Y-64262000D03*
D14*
X148082000Y-61722000D03*
X148082000Y-59182000D03*
X148082000Y-56642000D03*
X148082000Y-54102000D03*
D13*
X148082000Y-51562000D03*
D14*
X148082000Y-49022000D03*
X148082000Y-46482000D03*
X136652000Y-94512000D03*
D13*
X139192000Y-94512000D03*
D14*
X141732000Y-94512000D03*
%TD*%
D13*
%TO.C,J5*%
X175006000Y-94996000D03*
D14*
X172466000Y-94996000D03*
X169926000Y-94996000D03*
X167386000Y-94996000D03*
X164846000Y-94996000D03*
X162306000Y-94996000D03*
X159766000Y-94996000D03*
%TD*%
D11*
%TO.C,R3*%
X134366000Y-72898000D03*
D12*
X134366000Y-62738000D03*
%TD*%
D17*
%TO.C,SW1*%
X180288000Y-48804000D03*
X173788000Y-48804000D03*
X180288000Y-53304000D03*
X173788000Y-53304000D03*
%TD*%
D10*
%TO.C,REF\u002A\u002A*%
X177800000Y-144780000D03*
%TD*%
M02*
