%TF.GenerationSoftware,KiCad,Pcbnew,(6.0.1)*%
%TF.CreationDate,2022-11-11T16:48:07-03:00*%
%TF.ProjectId,Circuito esquem_tico,43697263-7569-4746-9f20-65737175656d,rev?*%
%TF.SameCoordinates,Original*%
%TF.FileFunction,Copper,L1,Top*%
%TF.FilePolarity,Positive*%
%FSLAX46Y46*%
G04 Gerber Fmt 4.6, Leading zero omitted, Abs format (unit mm)*
G04 Created by KiCad (PCBNEW (6.0.1)) date 2022-11-11 16:48:07*
%MOMM*%
%LPD*%
G01*
G04 APERTURE LIST*
G04 Aperture macros list*
%AMRoundRect*
0 Rectangle with rounded corners*
0 $1 Rounding radius*
0 $2 $3 $4 $5 $6 $7 $8 $9 X,Y pos of 4 corners*
0 Add a 4 corners polygon primitive as box body*
4,1,4,$2,$3,$4,$5,$6,$7,$8,$9,$2,$3,0*
0 Add four circle primitives for the rounded corners*
1,1,$1+$1,$2,$3*
1,1,$1+$1,$4,$5*
1,1,$1+$1,$6,$7*
1,1,$1+$1,$8,$9*
0 Add four rect primitives between the rounded corners*
20,1,$1+$1,$2,$3,$4,$5,0*
20,1,$1+$1,$4,$5,$6,$7,0*
20,1,$1+$1,$6,$7,$8,$9,0*
20,1,$1+$1,$8,$9,$2,$3,0*%
G04 Aperture macros list end*
%TA.AperFunction,ComponentPad*%
%ADD10C,1.600000*%
%TD*%
%TA.AperFunction,ComponentPad*%
%ADD11O,1.600000X1.600000*%
%TD*%
%TA.AperFunction,ComponentPad*%
%ADD12R,1.700000X1.700000*%
%TD*%
%TA.AperFunction,ComponentPad*%
%ADD13O,1.700000X1.700000*%
%TD*%
%TA.AperFunction,ComponentPad*%
%ADD14RoundRect,0.250000X-0.600000X-0.600000X0.600000X-0.600000X0.600000X0.600000X-0.600000X0.600000X0*%
%TD*%
%TA.AperFunction,ComponentPad*%
%ADD15C,1.700000*%
%TD*%
%TA.AperFunction,ComponentPad*%
%ADD16C,2.000000*%
%TD*%
%TA.AperFunction,ComponentPad*%
%ADD17R,1.800000X1.070000*%
%TD*%
%TA.AperFunction,ComponentPad*%
%ADD18O,1.800000X1.070000*%
%TD*%
%TA.AperFunction,SMDPad,CuDef*%
%ADD19R,3.500000X1.700000*%
%TD*%
%TA.AperFunction,SMDPad,CuDef*%
%ADD20R,1.700000X3.500000*%
%TD*%
%TA.AperFunction,ViaPad*%
%ADD21C,1.778000*%
%TD*%
%TA.AperFunction,Conductor*%
%ADD22C,0.812800*%
%TD*%
G04 APERTURE END LIST*
D10*
%TO.P,R6,1*%
%TO.N,GP21*%
X158496000Y-73406000D03*
D11*
%TO.P,R6,2*%
%TO.N,Net-(D1-Pad1)*%
X168656000Y-73406000D03*
%TD*%
D12*
%TO.P,J3,1,Pin_1*%
%TO.N,3.3V*%
X114808000Y-41148000D03*
D13*
%TO.P,J3,2,Pin_2*%
%TO.N,GP0*%
X114808000Y-43688000D03*
%TO.P,J3,3,Pin_3*%
%TO.N,GP1*%
X114808000Y-46228000D03*
%TO.P,J3,4,Pin_4*%
%TO.N,GND*%
X114808000Y-48768000D03*
%TD*%
D10*
%TO.P,R5,1*%
%TO.N,GP22*%
X158750000Y-69596000D03*
D11*
%TO.P,R5,2*%
%TO.N,Net-(D1-Pad3)*%
X168910000Y-69596000D03*
%TD*%
D12*
%TO.P,J4,1,Pin_1*%
%TO.N,GP6*%
X117577006Y-71709991D03*
D13*
%TO.P,J4,2,Pin_2*%
%TO.N,GP5*%
X115037006Y-71709991D03*
%TO.P,J4,3,Pin_3*%
%TO.N,GP3*%
X112497006Y-71709991D03*
%TO.P,J4,4,Pin_4*%
%TO.N,GP4*%
X109957006Y-71709991D03*
%TO.P,J4,5,Pin_5*%
%TO.N,3.3V*%
X107417006Y-71709991D03*
%TO.P,J4,6,Pin_6*%
%TO.N,GND*%
X104877006Y-71709991D03*
%TD*%
D14*
%TO.P,J6,1,Pin_1*%
%TO.N,GND*%
X117357500Y-106680000D03*
D15*
%TO.P,J6,2,Pin_2*%
X119897500Y-106680000D03*
%TO.P,J6,3,Pin_3*%
%TO.N,VBUS*%
X117357500Y-109220000D03*
%TO.P,J6,4,Pin_4*%
X119897500Y-109220000D03*
%TO.P,J6,5,Pin_5*%
%TO.N,3.3V*%
X117357500Y-111760000D03*
%TO.P,J6,6,Pin_6*%
X119897500Y-111760000D03*
%TO.P,J6,7,Pin_7*%
%TO.N,GP14*%
X117357500Y-114300000D03*
%TO.P,J6,8,Pin_8*%
X119897500Y-114300000D03*
%TO.P,J6,9,Pin_9*%
%TO.N,GP15*%
X117357500Y-116840000D03*
%TO.P,J6,10,Pin_10*%
X119897500Y-116840000D03*
%TD*%
D10*
%TO.P,R4,1*%
%TO.N,GP26*%
X158750000Y-65024000D03*
D11*
%TO.P,R4,2*%
%TO.N,Net-(D1-Pad4)*%
X168910000Y-65024000D03*
%TD*%
D12*
%TO.P,J1,1,Pin_1*%
%TO.N,GND*%
X116611000Y-78760000D03*
D13*
%TO.P,J1,2,Pin_2*%
%TO.N,VBUS*%
X116611000Y-81300000D03*
%TO.P,J1,3,Pin_3*%
%TO.N,GP2*%
X116611000Y-83840000D03*
%TO.P,J1,4,Pin_4*%
%TO.N,GP8*%
X116611000Y-86380000D03*
%TO.P,J1,5,Pin_5*%
%TO.N,GP9*%
X116611000Y-88920000D03*
%TO.P,J1,6,Pin_6*%
%TO.N,GP10*%
X116611000Y-91460000D03*
%TO.P,J1,7,Pin_7*%
%TO.N,GP11*%
X116611000Y-94000000D03*
%TD*%
D16*
%TO.P,SW2,1,1*%
%TO.N,GND*%
X165302000Y-48804000D03*
X158802000Y-48804000D03*
%TO.P,SW2,2,2*%
%TO.N,GP28*%
X165302000Y-53304000D03*
X158802000Y-53304000D03*
%TD*%
D17*
%TO.P,D1,1,RA*%
%TO.N,Net-(D1-Pad1)*%
X176530000Y-71374000D03*
D18*
%TO.P,D1,2,K*%
%TO.N,GND*%
X176530000Y-70104000D03*
%TO.P,D1,3,BA*%
%TO.N,Net-(D1-Pad3)*%
X176530000Y-68834000D03*
%TO.P,D1,4,GA*%
%TO.N,Net-(D1-Pad4)*%
X176530000Y-67564000D03*
%TD*%
D10*
%TO.P,R1,1*%
%TO.N,GP2*%
X134620000Y-59690000D03*
D11*
%TO.P,R1,2*%
%TO.N,3.3V*%
X144780000Y-59690000D03*
%TD*%
D10*
%TO.P,R2,1*%
%TO.N,GP8*%
X134620000Y-65278000D03*
D11*
%TO.P,R2,2*%
%TO.N,3.3V*%
X144780000Y-65278000D03*
%TD*%
D13*
%TO.P,U1,1,GPIO0*%
%TO.N,GP0*%
X130302000Y-46482000D03*
D19*
X129402000Y-46482000D03*
D13*
%TO.P,U1,2,GPIO1*%
%TO.N,GP1*%
X130302000Y-49022000D03*
D19*
X129402000Y-49022000D03*
%TO.P,U1,3,GND*%
%TO.N,GND*%
X129402000Y-51562000D03*
D12*
X130302000Y-51562000D03*
D13*
%TO.P,U1,4,GPIO2*%
%TO.N,GP2*%
X130302000Y-54102000D03*
D19*
X129402000Y-54102000D03*
D13*
%TO.P,U1,5,GPIO3*%
%TO.N,GP3*%
X130302000Y-56642000D03*
D19*
X129402000Y-56642000D03*
D13*
%TO.P,U1,6,GPIO4*%
%TO.N,GP4*%
X130302000Y-59182000D03*
D19*
X129402000Y-59182000D03*
%TO.P,U1,7,GPIO5*%
%TO.N,GP5*%
X129402000Y-61722000D03*
D13*
X130302000Y-61722000D03*
D12*
%TO.P,U1,8,GND*%
%TO.N,GND*%
X130302000Y-64262000D03*
D19*
X129402000Y-64262000D03*
%TO.P,U1,9,GPIO6*%
%TO.N,GP6*%
X129402000Y-66802000D03*
D13*
X130302000Y-66802000D03*
%TO.P,U1,10,GPIO7*%
%TO.N,GP7*%
X130302000Y-69342000D03*
D19*
X129402000Y-69342000D03*
%TO.P,U1,11,GPIO8*%
%TO.N,GP8*%
X129402000Y-71882000D03*
D13*
X130302000Y-71882000D03*
%TO.P,U1,12,GPIO9*%
%TO.N,GP9*%
X130302000Y-74422000D03*
D19*
X129402000Y-74422000D03*
D12*
%TO.P,U1,13,GND*%
%TO.N,GND*%
X130302000Y-76962000D03*
D19*
X129402000Y-76962000D03*
%TO.P,U1,14,GPIO10*%
%TO.N,GP10*%
X129402000Y-79502000D03*
D13*
X130302000Y-79502000D03*
%TO.P,U1,15,GPIO11*%
%TO.N,GP11*%
X130302000Y-82042000D03*
D19*
X129402000Y-82042000D03*
%TO.P,U1,16,GPIO12*%
%TO.N,GP12*%
X129402000Y-84582000D03*
D13*
X130302000Y-84582000D03*
D19*
%TO.P,U1,17,GPIO13*%
%TO.N,GP13*%
X129402000Y-87122000D03*
D13*
X130302000Y-87122000D03*
D19*
%TO.P,U1,18,GND*%
%TO.N,GND*%
X129402000Y-89662000D03*
D12*
X130302000Y-89662000D03*
D13*
%TO.P,U1,19,GPIO14*%
%TO.N,GP14*%
X130302000Y-92202000D03*
D19*
X129402000Y-92202000D03*
%TO.P,U1,20,GPIO15*%
%TO.N,GP15*%
X129402000Y-94742000D03*
D13*
X130302000Y-94742000D03*
D19*
%TO.P,U1,21,GPIO16*%
%TO.N,GP16*%
X148982000Y-94742000D03*
D13*
X148082000Y-94742000D03*
D19*
%TO.P,U1,22,GPIO17*%
%TO.N,GP17*%
X148982000Y-92202000D03*
D13*
X148082000Y-92202000D03*
D19*
%TO.P,U1,23,GND*%
%TO.N,GND*%
X148982000Y-89662000D03*
D12*
X148082000Y-89662000D03*
D13*
%TO.P,U1,24,GPIO18*%
%TO.N,GP18*%
X148082000Y-87122000D03*
D19*
X148982000Y-87122000D03*
%TO.P,U1,25,GPIO19*%
%TO.N,GP19*%
X148982000Y-84582000D03*
D13*
X148082000Y-84582000D03*
D19*
%TO.P,U1,26,GPIO20*%
%TO.N,GP20*%
X148982000Y-82042000D03*
D13*
X148082000Y-82042000D03*
%TO.P,U1,27,GPIO21*%
%TO.N,GP21*%
X148082000Y-79502000D03*
D19*
X148982000Y-79502000D03*
D12*
%TO.P,U1,28,GND*%
%TO.N,unconnected-(U1-Pad28)*%
X148082000Y-76962000D03*
D19*
X148982000Y-76962000D03*
D13*
%TO.P,U1,29,GPIO22*%
%TO.N,GP22*%
X148082000Y-74422000D03*
D19*
X148982000Y-74422000D03*
%TO.P,U1,30,RUN*%
%TO.N,unconnected-(U1-Pad30)*%
X148982000Y-71882000D03*
D13*
X148082000Y-71882000D03*
%TO.P,U1,31,GPIO26_ADC0*%
%TO.N,GP26*%
X148082000Y-69342000D03*
D19*
X148982000Y-69342000D03*
D13*
%TO.P,U1,32,GPIO27_ADC1*%
%TO.N,GP27*%
X148082000Y-66802000D03*
D19*
X148982000Y-66802000D03*
%TO.P,U1,33,AGND*%
%TO.N,unconnected-(U1-Pad33)*%
X148982000Y-64262000D03*
D12*
X148082000Y-64262000D03*
D19*
%TO.P,U1,34,GPIO28_ADC2*%
%TO.N,GP28*%
X148982000Y-61722000D03*
D13*
X148082000Y-61722000D03*
D19*
%TO.P,U1,35,ADC_VREF*%
%TO.N,unconnected-(U1-Pad35)*%
X148982000Y-59182000D03*
D13*
X148082000Y-59182000D03*
%TO.P,U1,36,3V3*%
%TO.N,3.3V*%
X148082000Y-56642000D03*
D19*
X148982000Y-56642000D03*
%TO.P,U1,37,3V3_EN*%
%TO.N,unconnected-(U1-Pad37)*%
X148982000Y-54102000D03*
D13*
X148082000Y-54102000D03*
D19*
%TO.P,U1,38,GND*%
%TO.N,GND*%
X148982000Y-51562000D03*
D12*
X148082000Y-51562000D03*
D19*
%TO.P,U1,39,VSYS*%
%TO.N,unconnected-(U1-Pad39)*%
X148982000Y-49022000D03*
D13*
X148082000Y-49022000D03*
%TO.P,U1,40,VBUS*%
%TO.N,VBUS*%
X148082000Y-46482000D03*
D19*
X148982000Y-46482000D03*
D20*
%TO.P,U1,41,SWCLK*%
%TO.N,unconnected-(U1-Pad41)*%
X136652000Y-95412000D03*
D13*
X136652000Y-94512000D03*
D12*
%TO.P,U1,42,GND*%
%TO.N,unconnected-(U1-Pad42)*%
X139192000Y-94512000D03*
D20*
X139192000Y-95412000D03*
D13*
%TO.P,U1,43,SWDIO*%
%TO.N,unconnected-(U1-Pad43)*%
X141732000Y-94512000D03*
D20*
X141732000Y-95412000D03*
%TD*%
D12*
%TO.P,J5,1,Pin_1*%
%TO.N,GP16*%
X175235000Y-97008000D03*
D13*
%TO.P,J5,2,Pin_2*%
%TO.N,GP17*%
X175235000Y-94468000D03*
%TO.P,J5,3,Pin_3*%
%TO.N,GP20*%
X175235000Y-91928000D03*
%TO.P,J5,4,Pin_4*%
%TO.N,GP19*%
X175235000Y-89388000D03*
%TO.P,J5,5,Pin_5*%
%TO.N,GP18*%
X175235000Y-86848000D03*
%TO.P,J5,6,Pin_6*%
%TO.N,3.3V*%
X175235000Y-84308000D03*
%TO.P,J5,7,Pin_7*%
%TO.N,GND*%
X175235000Y-81768000D03*
%TD*%
D10*
%TO.P,R3,1*%
%TO.N,GP9*%
X134366000Y-72136000D03*
D11*
%TO.P,R3,2*%
%TO.N,3.3V*%
X144526000Y-72136000D03*
%TD*%
D16*
%TO.P,SW1,1,1*%
%TO.N,GND*%
X180288000Y-48804000D03*
X173788000Y-48804000D03*
%TO.P,SW1,2,2*%
%TO.N,GP27*%
X180288000Y-53304000D03*
X173788000Y-53304000D03*
%TD*%
D21*
%TO.N,3.3V*%
X144780000Y-44704000D03*
X144780000Y-54356000D03*
%TO.N,GND*%
X168656000Y-81534000D03*
X168656000Y-89662000D03*
X113030000Y-76454000D03*
X183388000Y-74930000D03*
X178816000Y-80772000D03*
X124714000Y-76962000D03*
%TO.N,GP3*%
X114300000Y-56642000D03*
%TO.N,3.3V*%
X186690000Y-84328000D03*
%TO.N,VBUS*%
X109220000Y-87884000D03*
X109220000Y-81788000D03*
%TO.N,3.3V*%
X105664000Y-58166000D03*
X179558010Y-84308010D03*
X105664000Y-50546000D03*
%TO.N,GP3*%
X113792000Y-62738000D03*
%TD*%
D22*
%TO.N,3.3V*%
X144780000Y-54356000D02*
X144780000Y-44704000D01*
%TO.N,GND*%
X168656000Y-89662000D02*
X168656000Y-81534000D01*
X114300000Y-74676000D02*
X113030000Y-75946000D01*
X113030000Y-75946000D02*
X113030000Y-76454000D01*
X123952000Y-74676000D02*
X114300000Y-74676000D01*
X124714000Y-75438000D02*
X123952000Y-74676000D01*
X124714000Y-76962000D02*
X124714000Y-75438000D01*
X183388000Y-76200000D02*
X183388000Y-74930000D01*
X178816000Y-80772000D02*
X183388000Y-76200000D01*
%TO.N,GP3*%
X114300000Y-62230000D02*
X113792000Y-62738000D01*
X114300000Y-56642000D02*
X114300000Y-62230000D01*
%TO.N,3.3V*%
X179578000Y-84328000D02*
X186690000Y-84328000D01*
X179558010Y-84308010D02*
X179578000Y-84328000D01*
%TO.N,VBUS*%
X109220000Y-87884000D02*
X109220000Y-81788000D01*
%TO.N,3.3V*%
X179558000Y-84308000D02*
X179578000Y-84328000D01*
X105664000Y-50546000D02*
X105664000Y-58166000D01*
%TD*%
M02*
