M48
; DRILL file {KiCad (6.0.1)} date Fri Nov 11 16:48:28 2022
; FORMAT={-:-/ absolute / metric / decimal}
; #@! TF.CreationDate,2022-11-11T16:48:28-03:00
; #@! TF.GenerationSoftware,Kicad,Pcbnew,(6.0.1)
; #@! TF.FileFunction,Plated,1,2,PTH
FMAT,2
METRIC
; #@! TA.AperFunction,Plated,PTH,ComponentDrill
T1C0.800
; #@! TA.AperFunction,Plated,PTH,ComponentDrill
T2C0.900
; #@! TA.AperFunction,Plated,PTH,ComponentDrill
T3C1.000
; #@! TA.AperFunction,Plated,PTH,ViaDrill
T4C1.016
; #@! TA.AperFunction,Plated,PTH,ComponentDrill
T5C1.020
; #@! TA.AperFunction,Plated,PTH,ComponentDrill
T6C1.100
%
G90
G05
T1
X134.366Y-72.136
X134.62Y-59.69
X134.62Y-65.278
X144.526Y-72.136
X144.78Y-59.69
X144.78Y-65.278
X158.496Y-73.406
X158.75Y-65.024
X158.75Y-69.596
X168.656Y-73.406
X168.91Y-65.024
X168.91Y-69.596
T2
X176.53Y-67.564
X176.53Y-68.834
X176.53Y-70.104
X176.53Y-71.374
T3
X104.877Y-71.71
X107.417Y-71.71
X109.957Y-71.71
X112.497Y-71.71
X114.808Y-41.148
X114.808Y-43.688
X114.808Y-46.228
X114.808Y-48.768
X115.037Y-71.71
X116.611Y-78.76
X116.611Y-81.3
X116.611Y-83.84
X116.611Y-86.38
X116.611Y-88.92
X116.611Y-91.46
X116.611Y-94.0
X117.358Y-106.68
X117.358Y-109.22
X117.358Y-111.76
X117.358Y-114.3
X117.358Y-116.84
X117.577Y-71.71
X119.897Y-106.68
X119.897Y-109.22
X119.897Y-111.76
X119.897Y-114.3
X119.897Y-116.84
X175.235Y-81.768
X175.235Y-84.308
X175.235Y-86.848
X175.235Y-89.388
X175.235Y-91.928
X175.235Y-94.468
X175.235Y-97.008
T4
X105.664Y-50.546
X105.664Y-58.166
X109.22Y-81.788
X109.22Y-87.884
X113.03Y-76.454
X113.792Y-62.738
X114.3Y-56.642
X124.714Y-76.962
X144.78Y-44.704
X144.78Y-54.356
X168.656Y-81.534
X168.656Y-89.662
X178.816Y-80.772
X179.558Y-84.308
X183.388Y-74.93
X186.69Y-84.328
T5
X130.302Y-46.482
X130.302Y-49.022
X130.302Y-51.562
X130.302Y-54.102
X130.302Y-56.642
X130.302Y-59.182
X130.302Y-61.722
X130.302Y-64.262
X130.302Y-66.802
X130.302Y-69.342
X130.302Y-71.882
X130.302Y-74.422
X130.302Y-76.962
X130.302Y-79.502
X130.302Y-82.042
X130.302Y-84.582
X130.302Y-87.122
X130.302Y-89.662
X130.302Y-92.202
X130.302Y-94.742
X136.652Y-94.512
X139.192Y-94.512
X141.732Y-94.512
X148.082Y-46.482
X148.082Y-49.022
X148.082Y-51.562
X148.082Y-54.102
X148.082Y-56.642
X148.082Y-59.182
X148.082Y-61.722
X148.082Y-64.262
X148.082Y-66.802
X148.082Y-69.342
X148.082Y-71.882
X148.082Y-74.422
X148.082Y-76.962
X148.082Y-79.502
X148.082Y-82.042
X148.082Y-84.582
X148.082Y-87.122
X148.082Y-89.662
X148.082Y-92.202
X148.082Y-94.742
T6
X158.802Y-48.804
X158.802Y-53.304
X165.302Y-48.804
X165.302Y-53.304
X173.788Y-48.804
X173.788Y-53.304
X180.288Y-48.804
X180.288Y-53.304
T0
M30
