%TF.GenerationSoftware,KiCad,Pcbnew,(6.0.1)*%
%TF.CreationDate,2022-11-11T16:48:08-03:00*%
%TF.ProjectId,Circuito esquem_tico,43697263-7569-4746-9f20-65737175656d,rev?*%
%TF.SameCoordinates,Original*%
%TF.FileFunction,Soldermask,Top*%
%TF.FilePolarity,Negative*%
%FSLAX46Y46*%
G04 Gerber Fmt 4.6, Leading zero omitted, Abs format (unit mm)*
G04 Created by KiCad (PCBNEW (6.0.1)) date 2022-11-11 16:48:08*
%MOMM*%
%LPD*%
G01*
G04 APERTURE LIST*
G04 Aperture macros list*
%AMRoundRect*
0 Rectangle with rounded corners*
0 $1 Rounding radius*
0 $2 $3 $4 $5 $6 $7 $8 $9 X,Y pos of 4 corners*
0 Add a 4 corners polygon primitive as box body*
4,1,4,$2,$3,$4,$5,$6,$7,$8,$9,$2,$3,0*
0 Add four circle primitives for the rounded corners*
1,1,$1+$1,$2,$3*
1,1,$1+$1,$4,$5*
1,1,$1+$1,$6,$7*
1,1,$1+$1,$8,$9*
0 Add four rect primitives between the rounded corners*
20,1,$1+$1,$2,$3,$4,$5,0*
20,1,$1+$1,$4,$5,$6,$7,0*
20,1,$1+$1,$6,$7,$8,$9,0*
20,1,$1+$1,$8,$9,$2,$3,0*%
G04 Aperture macros list end*
%ADD10C,1.600000*%
%ADD11O,1.600000X1.600000*%
%ADD12R,1.700000X1.700000*%
%ADD13O,1.700000X1.700000*%
%ADD14C,3.500000*%
%ADD15RoundRect,0.250000X-0.600000X-0.600000X0.600000X-0.600000X0.600000X0.600000X-0.600000X0.600000X0*%
%ADD16C,1.700000*%
%ADD17C,2.000000*%
%ADD18R,1.800000X1.070000*%
%ADD19O,1.800000X1.070000*%
%ADD20O,1.800000X1.800000*%
%ADD21O,1.500000X1.500000*%
%ADD22R,3.500000X1.700000*%
%ADD23R,1.700000X3.500000*%
G04 APERTURE END LIST*
D10*
%TO.C,R6*%
X158496000Y-73406000D03*
D11*
X168656000Y-73406000D03*
%TD*%
D12*
%TO.C,J3*%
X114808000Y-41148000D03*
D13*
X114808000Y-43688000D03*
X114808000Y-46228000D03*
X114808000Y-48768000D03*
%TD*%
D10*
%TO.C,R5*%
X158750000Y-69596000D03*
D11*
X168910000Y-69596000D03*
%TD*%
D12*
%TO.C,J4*%
X117577006Y-71709991D03*
D13*
X115037006Y-71709991D03*
X112497006Y-71709991D03*
X109957006Y-71709991D03*
X107417006Y-71709991D03*
X104877006Y-71709991D03*
%TD*%
D14*
%TO.C,REF\u002A\u002A*%
X92710000Y-119888000D03*
%TD*%
D15*
%TO.C,J6*%
X117357500Y-106680000D03*
D16*
X119897500Y-106680000D03*
X117357500Y-109220000D03*
X119897500Y-109220000D03*
X117357500Y-111760000D03*
X119897500Y-111760000D03*
X117357500Y-114300000D03*
X119897500Y-114300000D03*
X117357500Y-116840000D03*
X119897500Y-116840000D03*
%TD*%
D10*
%TO.C,R4*%
X158750000Y-65024000D03*
D11*
X168910000Y-65024000D03*
%TD*%
D12*
%TO.C,J1*%
X116611000Y-78760000D03*
D13*
X116611000Y-81300000D03*
X116611000Y-83840000D03*
X116611000Y-86380000D03*
X116611000Y-88920000D03*
X116611000Y-91460000D03*
X116611000Y-94000000D03*
%TD*%
D14*
%TO.C,REF\u002A\u002A*%
X92456000Y-39370000D03*
%TD*%
D17*
%TO.C,SW2*%
X165302000Y-48804000D03*
X158802000Y-48804000D03*
X165302000Y-53304000D03*
X158802000Y-53304000D03*
%TD*%
D18*
%TO.C,D1*%
X176530000Y-71374000D03*
D19*
X176530000Y-70104000D03*
X176530000Y-68834000D03*
X176530000Y-67564000D03*
%TD*%
D10*
%TO.C,R1*%
X134620000Y-59690000D03*
D11*
X144780000Y-59690000D03*
%TD*%
D10*
%TO.C,R2*%
X134620000Y-65278000D03*
D11*
X144780000Y-65278000D03*
%TD*%
D20*
%TO.C,U1*%
X141917000Y-46612000D03*
X136467000Y-46612000D03*
D21*
X136767000Y-49642000D03*
X141617000Y-49642000D03*
D13*
X130302000Y-46482000D03*
D22*
X129402000Y-46482000D03*
D13*
X130302000Y-49022000D03*
D22*
X129402000Y-49022000D03*
X129402000Y-51562000D03*
D12*
X130302000Y-51562000D03*
D13*
X130302000Y-54102000D03*
D22*
X129402000Y-54102000D03*
D13*
X130302000Y-56642000D03*
D22*
X129402000Y-56642000D03*
D13*
X130302000Y-59182000D03*
D22*
X129402000Y-59182000D03*
X129402000Y-61722000D03*
D13*
X130302000Y-61722000D03*
D12*
X130302000Y-64262000D03*
D22*
X129402000Y-64262000D03*
X129402000Y-66802000D03*
D13*
X130302000Y-66802000D03*
X130302000Y-69342000D03*
D22*
X129402000Y-69342000D03*
X129402000Y-71882000D03*
D13*
X130302000Y-71882000D03*
X130302000Y-74422000D03*
D22*
X129402000Y-74422000D03*
D12*
X130302000Y-76962000D03*
D22*
X129402000Y-76962000D03*
X129402000Y-79502000D03*
D13*
X130302000Y-79502000D03*
X130302000Y-82042000D03*
D22*
X129402000Y-82042000D03*
X129402000Y-84582000D03*
D13*
X130302000Y-84582000D03*
D22*
X129402000Y-87122000D03*
D13*
X130302000Y-87122000D03*
D22*
X129402000Y-89662000D03*
D12*
X130302000Y-89662000D03*
D13*
X130302000Y-92202000D03*
D22*
X129402000Y-92202000D03*
X129402000Y-94742000D03*
D13*
X130302000Y-94742000D03*
D22*
X148982000Y-94742000D03*
D13*
X148082000Y-94742000D03*
D22*
X148982000Y-92202000D03*
D13*
X148082000Y-92202000D03*
D22*
X148982000Y-89662000D03*
D12*
X148082000Y-89662000D03*
D13*
X148082000Y-87122000D03*
D22*
X148982000Y-87122000D03*
X148982000Y-84582000D03*
D13*
X148082000Y-84582000D03*
D22*
X148982000Y-82042000D03*
D13*
X148082000Y-82042000D03*
X148082000Y-79502000D03*
D22*
X148982000Y-79502000D03*
D12*
X148082000Y-76962000D03*
D22*
X148982000Y-76962000D03*
D13*
X148082000Y-74422000D03*
D22*
X148982000Y-74422000D03*
X148982000Y-71882000D03*
D13*
X148082000Y-71882000D03*
X148082000Y-69342000D03*
D22*
X148982000Y-69342000D03*
D13*
X148082000Y-66802000D03*
D22*
X148982000Y-66802000D03*
X148982000Y-64262000D03*
D12*
X148082000Y-64262000D03*
D22*
X148982000Y-61722000D03*
D13*
X148082000Y-61722000D03*
D22*
X148982000Y-59182000D03*
D13*
X148082000Y-59182000D03*
X148082000Y-56642000D03*
D22*
X148982000Y-56642000D03*
X148982000Y-54102000D03*
D13*
X148082000Y-54102000D03*
D22*
X148982000Y-51562000D03*
D12*
X148082000Y-51562000D03*
D22*
X148982000Y-49022000D03*
D13*
X148082000Y-49022000D03*
X148082000Y-46482000D03*
D22*
X148982000Y-46482000D03*
D23*
X136652000Y-95412000D03*
D13*
X136652000Y-94512000D03*
D12*
X139192000Y-94512000D03*
D23*
X139192000Y-95412000D03*
D13*
X141732000Y-94512000D03*
D23*
X141732000Y-95412000D03*
%TD*%
D12*
%TO.C,J5*%
X175235000Y-97008000D03*
D13*
X175235000Y-94468000D03*
X175235000Y-91928000D03*
X175235000Y-89388000D03*
X175235000Y-86848000D03*
X175235000Y-84308000D03*
X175235000Y-81768000D03*
%TD*%
D10*
%TO.C,R3*%
X134366000Y-72136000D03*
D11*
X144526000Y-72136000D03*
%TD*%
D17*
%TO.C,SW1*%
X180288000Y-48804000D03*
X173788000Y-48804000D03*
X180288000Y-53304000D03*
X173788000Y-53304000D03*
%TD*%
D14*
%TO.C,REF\u002A\u002A*%
X179578000Y-39370000D03*
%TD*%
%TO.C,REF\u002A\u002A*%
X180086000Y-120142000D03*
%TD*%
M02*
