M48
; DRILL file {KiCad (6.0.1)} date Fri Nov 25 13:11:37 2022
; FORMAT={-:-/ absolute / metric / decimal}
; #@! TF.CreationDate,2022-11-25T13:11:37-03:00
; #@! TF.GenerationSoftware,Kicad,Pcbnew,(6.0.1)
; #@! TF.FileFunction,Plated,1,2,PTH
FMAT,2
METRIC
; #@! TA.AperFunction,Plated,PTH,ComponentDrill
T1C0.800
; #@! TA.AperFunction,Plated,PTH,ComponentDrill
T2C0.900
; #@! TA.AperFunction,Plated,PTH,ViaDrill
T3C1.000
; #@! TA.AperFunction,Plated,PTH,ComponentDrill
T4C1.000
; #@! TA.AperFunction,Plated,PTH,ComponentDrill
T5C1.020
; #@! TA.AperFunction,Plated,PTH,ComponentDrill
T6C1.100
%
G90
G05
T1
X134.112Y-68.58
X134.112Y-74.168
X134.366Y-59.69
X144.272Y-68.58
X144.272Y-74.168
X144.526Y-59.69
X158.496Y-73.406
X158.75Y-65.024
X158.75Y-69.596
X168.656Y-73.406
X168.91Y-65.024
X168.91Y-69.596
T2
X176.53Y-67.564
X176.53Y-68.834
X176.53Y-70.104
X176.53Y-71.374
T3
X105.918Y-60.452
X105.918Y-64.516
X106.426Y-99.06
X107.696Y-91.186
X111.252Y-54.102
X112.776Y-92.964
X112.776Y-95.504
X115.824Y-123.19
X118.364Y-90.424
X121.158Y-107.95
X121.412Y-66.802
X121.412Y-72.136
X122.174Y-56.642
X122.174Y-64.516
X124.714Y-88.138
X125.73Y-79.502
X129.032Y-121.158
X144.78Y-48.514
X144.78Y-54.356
X152.654Y-89.662
X153.924Y-82.804
T4
X114.808Y-41.148
X114.808Y-43.688
X114.808Y-46.228
X114.808Y-48.768
X115.316Y-64.516
X115.316Y-67.056
X115.316Y-69.596
X115.316Y-72.136
X115.316Y-74.676
X115.316Y-77.216
X115.316Y-79.756
X115.57Y-90.424
X115.57Y-92.964
X115.57Y-95.504
X115.57Y-98.044
X115.57Y-100.584
X115.57Y-103.124
X115.57Y-105.664
X129.54Y-112.776
X129.54Y-115.316
X132.08Y-112.776
X132.08Y-115.316
X134.62Y-112.776
X134.62Y-115.316
X137.16Y-112.776
X137.16Y-115.316
X139.7Y-112.776
X139.7Y-115.316
X165.526Y-83.033
X165.526Y-85.573
X165.526Y-88.113
X165.526Y-90.653
X165.526Y-93.193
X165.526Y-95.733
T5
X130.302Y-46.482
X130.302Y-49.022
X130.302Y-51.562
X130.302Y-54.102
X130.302Y-56.642
X130.302Y-59.182
X130.302Y-61.722
X130.302Y-64.262
X130.302Y-66.802
X130.302Y-69.342
X130.302Y-71.882
X130.302Y-74.422
X130.302Y-76.962
X130.302Y-79.502
X130.302Y-82.042
X130.302Y-84.582
X130.302Y-87.122
X130.302Y-89.662
X130.302Y-92.202
X130.302Y-94.742
X136.652Y-94.512
X139.192Y-94.512
X141.732Y-94.512
X148.082Y-46.482
X148.082Y-49.022
X148.082Y-51.562
X148.082Y-54.102
X148.082Y-56.642
X148.082Y-59.182
X148.082Y-61.722
X148.082Y-64.262
X148.082Y-66.802
X148.082Y-69.342
X148.082Y-71.882
X148.082Y-74.422
X148.082Y-76.962
X148.082Y-79.502
X148.082Y-82.042
X148.082Y-84.582
X148.082Y-87.122
X148.082Y-89.662
X148.082Y-92.202
X148.082Y-94.742
T6
X158.802Y-48.804
X158.802Y-53.304
X165.302Y-48.804
X165.302Y-53.304
X173.788Y-48.804
X173.788Y-53.304
X180.288Y-48.804
X180.288Y-53.304
T0
M30
