%TF.GenerationSoftware,KiCad,Pcbnew,(6.0.1)*%
%TF.CreationDate,2022-11-25T13:10:30-03:00*%
%TF.ProjectId,Circuito esquem_tico,43697263-7569-4746-9f20-65737175656d,rev?*%
%TF.SameCoordinates,Original*%
%TF.FileFunction,Legend,Top*%
%TF.FilePolarity,Positive*%
%FSLAX46Y46*%
G04 Gerber Fmt 4.6, Leading zero omitted, Abs format (unit mm)*
G04 Created by KiCad (PCBNEW (6.0.1)) date 2022-11-25 13:10:30*
%MOMM*%
%LPD*%
G01*
G04 APERTURE LIST*
%ADD10C,0.150000*%
%ADD11C,0.120000*%
G04 APERTURE END LIST*
D10*
%TO.C,R6*%
X163409333Y-71488380D02*
X163076000Y-71012190D01*
X162837904Y-71488380D02*
X162837904Y-70488380D01*
X163218857Y-70488380D01*
X163314095Y-70536000D01*
X163361714Y-70583619D01*
X163409333Y-70678857D01*
X163409333Y-70821714D01*
X163361714Y-70916952D01*
X163314095Y-70964571D01*
X163218857Y-71012190D01*
X162837904Y-71012190D01*
X164266476Y-70488380D02*
X164076000Y-70488380D01*
X163980761Y-70536000D01*
X163933142Y-70583619D01*
X163837904Y-70726476D01*
X163790285Y-70916952D01*
X163790285Y-71297904D01*
X163837904Y-71393142D01*
X163885523Y-71440761D01*
X163980761Y-71488380D01*
X164171238Y-71488380D01*
X164266476Y-71440761D01*
X164314095Y-71393142D01*
X164361714Y-71297904D01*
X164361714Y-71059809D01*
X164314095Y-70964571D01*
X164266476Y-70916952D01*
X164171238Y-70869333D01*
X163980761Y-70869333D01*
X163885523Y-70916952D01*
X163837904Y-70964571D01*
X163790285Y-71059809D01*
%TO.C,J3*%
X114474666Y-37830380D02*
X114474666Y-38544666D01*
X114427047Y-38687523D01*
X114331809Y-38782761D01*
X114188952Y-38830380D01*
X114093714Y-38830380D01*
X114855619Y-37830380D02*
X115474666Y-37830380D01*
X115141333Y-38211333D01*
X115284190Y-38211333D01*
X115379428Y-38258952D01*
X115427047Y-38306571D01*
X115474666Y-38401809D01*
X115474666Y-38639904D01*
X115427047Y-38735142D01*
X115379428Y-38782761D01*
X115284190Y-38830380D01*
X114998476Y-38830380D01*
X114903238Y-38782761D01*
X114855619Y-38735142D01*
%TO.C,R5*%
X163917333Y-74366380D02*
X163584000Y-73890190D01*
X163345904Y-74366380D02*
X163345904Y-73366380D01*
X163726857Y-73366380D01*
X163822095Y-73414000D01*
X163869714Y-73461619D01*
X163917333Y-73556857D01*
X163917333Y-73699714D01*
X163869714Y-73794952D01*
X163822095Y-73842571D01*
X163726857Y-73890190D01*
X163345904Y-73890190D01*
X164822095Y-73366380D02*
X164345904Y-73366380D01*
X164298285Y-73842571D01*
X164345904Y-73794952D01*
X164441142Y-73747333D01*
X164679238Y-73747333D01*
X164774476Y-73794952D01*
X164822095Y-73842571D01*
X164869714Y-73937809D01*
X164869714Y-74175904D01*
X164822095Y-74271142D01*
X164774476Y-74318761D01*
X164679238Y-74366380D01*
X164441142Y-74366380D01*
X164345904Y-74318761D01*
X164298285Y-74271142D01*
%TO.C,J4*%
X169572666Y-97955380D02*
X169572666Y-98669666D01*
X169525047Y-98812523D01*
X169429809Y-98907761D01*
X169286952Y-98955380D01*
X169191714Y-98955380D01*
X170477428Y-98288714D02*
X170477428Y-98955380D01*
X170239333Y-97907761D02*
X170001238Y-98622047D01*
X170620285Y-98622047D01*
%TO.C,J6*%
X122892380Y-114379333D02*
X123606666Y-114379333D01*
X123749523Y-114426952D01*
X123844761Y-114522190D01*
X123892380Y-114665047D01*
X123892380Y-114760285D01*
X122892380Y-113474571D02*
X122892380Y-113665047D01*
X122940000Y-113760285D01*
X122987619Y-113807904D01*
X123130476Y-113903142D01*
X123320952Y-113950761D01*
X123701904Y-113950761D01*
X123797142Y-113903142D01*
X123844761Y-113855523D01*
X123892380Y-113760285D01*
X123892380Y-113569809D01*
X123844761Y-113474571D01*
X123797142Y-113426952D01*
X123701904Y-113379333D01*
X123463809Y-113379333D01*
X123368571Y-113426952D01*
X123320952Y-113474571D01*
X123273333Y-113569809D01*
X123273333Y-113760285D01*
X123320952Y-113855523D01*
X123368571Y-113903142D01*
X123463809Y-113950761D01*
%TO.C,R4*%
X163663333Y-63106380D02*
X163330000Y-62630190D01*
X163091904Y-63106380D02*
X163091904Y-62106380D01*
X163472857Y-62106380D01*
X163568095Y-62154000D01*
X163615714Y-62201619D01*
X163663333Y-62296857D01*
X163663333Y-62439714D01*
X163615714Y-62534952D01*
X163568095Y-62582571D01*
X163472857Y-62630190D01*
X163091904Y-62630190D01*
X164520476Y-62439714D02*
X164520476Y-63106380D01*
X164282380Y-62058761D02*
X164044285Y-62773047D01*
X164663333Y-62773047D01*
%TO.C,J1*%
X115236666Y-87106380D02*
X115236666Y-87820666D01*
X115189047Y-87963523D01*
X115093809Y-88058761D01*
X114950952Y-88106380D01*
X114855714Y-88106380D01*
X116236666Y-88106380D02*
X115665238Y-88106380D01*
X115950952Y-88106380D02*
X115950952Y-87106380D01*
X115855714Y-87249238D01*
X115760476Y-87344476D01*
X115665238Y-87392095D01*
%TO.C,SW2*%
X160718666Y-47208761D02*
X160861523Y-47256380D01*
X161099619Y-47256380D01*
X161194857Y-47208761D01*
X161242476Y-47161142D01*
X161290095Y-47065904D01*
X161290095Y-46970666D01*
X161242476Y-46875428D01*
X161194857Y-46827809D01*
X161099619Y-46780190D01*
X160909142Y-46732571D01*
X160813904Y-46684952D01*
X160766285Y-46637333D01*
X160718666Y-46542095D01*
X160718666Y-46446857D01*
X160766285Y-46351619D01*
X160813904Y-46304000D01*
X160909142Y-46256380D01*
X161147238Y-46256380D01*
X161290095Y-46304000D01*
X161623428Y-46256380D02*
X161861523Y-47256380D01*
X162052000Y-46542095D01*
X162242476Y-47256380D01*
X162480571Y-46256380D01*
X162813904Y-46351619D02*
X162861523Y-46304000D01*
X162956761Y-46256380D01*
X163194857Y-46256380D01*
X163290095Y-46304000D01*
X163337714Y-46351619D01*
X163385333Y-46446857D01*
X163385333Y-46542095D01*
X163337714Y-46684952D01*
X162766285Y-47256380D01*
X163385333Y-47256380D01*
%TO.C,D1*%
X173022380Y-70207095D02*
X172022380Y-70207095D01*
X172022380Y-69969000D01*
X172070000Y-69826142D01*
X172165238Y-69730904D01*
X172260476Y-69683285D01*
X172450952Y-69635666D01*
X172593809Y-69635666D01*
X172784285Y-69683285D01*
X172879523Y-69730904D01*
X172974761Y-69826142D01*
X173022380Y-69969000D01*
X173022380Y-70207095D01*
X173022380Y-68683285D02*
X173022380Y-69254714D01*
X173022380Y-68969000D02*
X172022380Y-68969000D01*
X172165238Y-69064238D01*
X172260476Y-69159476D01*
X172308095Y-69254714D01*
%TO.C,R1*%
X139279333Y-60142380D02*
X138946000Y-59666190D01*
X138707904Y-60142380D02*
X138707904Y-59142380D01*
X139088857Y-59142380D01*
X139184095Y-59190000D01*
X139231714Y-59237619D01*
X139279333Y-59332857D01*
X139279333Y-59475714D01*
X139231714Y-59570952D01*
X139184095Y-59618571D01*
X139088857Y-59666190D01*
X138707904Y-59666190D01*
X140231714Y-60142380D02*
X139660285Y-60142380D01*
X139946000Y-60142380D02*
X139946000Y-59142380D01*
X139850761Y-59285238D01*
X139755523Y-59380476D01*
X139660285Y-59428095D01*
%TO.C,R2*%
X139025333Y-72250380D02*
X138692000Y-71774190D01*
X138453904Y-72250380D02*
X138453904Y-71250380D01*
X138834857Y-71250380D01*
X138930095Y-71298000D01*
X138977714Y-71345619D01*
X139025333Y-71440857D01*
X139025333Y-71583714D01*
X138977714Y-71678952D01*
X138930095Y-71726571D01*
X138834857Y-71774190D01*
X138453904Y-71774190D01*
X139406285Y-71345619D02*
X139453904Y-71298000D01*
X139549142Y-71250380D01*
X139787238Y-71250380D01*
X139882476Y-71298000D01*
X139930095Y-71345619D01*
X139977714Y-71440857D01*
X139977714Y-71536095D01*
X139930095Y-71678952D01*
X139358666Y-72250380D01*
X139977714Y-72250380D01*
%TO.C,U1*%
X138430095Y-62698380D02*
X138430095Y-63507904D01*
X138477714Y-63603142D01*
X138525333Y-63650761D01*
X138620571Y-63698380D01*
X138811047Y-63698380D01*
X138906285Y-63650761D01*
X138953904Y-63603142D01*
X139001523Y-63507904D01*
X139001523Y-62698380D01*
X140001523Y-63698380D02*
X139430095Y-63698380D01*
X139715809Y-63698380D02*
X139715809Y-62698380D01*
X139620571Y-62841238D01*
X139525333Y-62936476D01*
X139430095Y-62984095D01*
X125678158Y-89810155D02*
X125597346Y-89837093D01*
X125516534Y-89917905D01*
X125462659Y-90025654D01*
X125462659Y-90133404D01*
X125489597Y-90214216D01*
X125570409Y-90348903D01*
X125651221Y-90429715D01*
X125785908Y-90510528D01*
X125866720Y-90537465D01*
X125974470Y-90537465D01*
X126082219Y-90483590D01*
X126136094Y-90429715D01*
X126189969Y-90321966D01*
X126189969Y-90268091D01*
X126001407Y-90079529D01*
X125893658Y-90187279D01*
X126486280Y-90079529D02*
X125920595Y-89513844D01*
X126809529Y-89756280D01*
X126243844Y-89190595D01*
X127078903Y-89486906D02*
X126513218Y-88921221D01*
X126647905Y-88786534D01*
X126755654Y-88732659D01*
X126863404Y-88732659D01*
X126944216Y-88759597D01*
X127078903Y-88840409D01*
X127159715Y-88921221D01*
X127240528Y-89055908D01*
X127267465Y-89136720D01*
X127267465Y-89244470D01*
X127213590Y-89352219D01*
X127078903Y-89486906D01*
X125181722Y-87512592D02*
X125100910Y-87539529D01*
X125020097Y-87620341D01*
X124966223Y-87728091D01*
X124966223Y-87835841D01*
X124993160Y-87916653D01*
X125073972Y-88051340D01*
X125154784Y-88132152D01*
X125289471Y-88212964D01*
X125370284Y-88239902D01*
X125478033Y-88239902D01*
X125585783Y-88186027D01*
X125639658Y-88132152D01*
X125693532Y-88024402D01*
X125693532Y-87970528D01*
X125504971Y-87781966D01*
X125397221Y-87889715D01*
X125989844Y-87781966D02*
X125424158Y-87216280D01*
X125639658Y-87000781D01*
X125720470Y-86973844D01*
X125774345Y-86973844D01*
X125855157Y-87000781D01*
X125935969Y-87081593D01*
X125962906Y-87162406D01*
X125962906Y-87216280D01*
X125935969Y-87297093D01*
X125720470Y-87512592D01*
X126851841Y-86919969D02*
X126528592Y-87243218D01*
X126690216Y-87081593D02*
X126124531Y-86515908D01*
X126151468Y-86650595D01*
X126151468Y-86758345D01*
X126124531Y-86839157D01*
X126474717Y-86165722D02*
X126824903Y-85815536D01*
X126851841Y-86219597D01*
X126932653Y-86138784D01*
X127013465Y-86111847D01*
X127067340Y-86111847D01*
X127148152Y-86138784D01*
X127282839Y-86273471D01*
X127309776Y-86354284D01*
X127309776Y-86408158D01*
X127282839Y-86488971D01*
X127121215Y-86650595D01*
X127040402Y-86677532D01*
X126986528Y-86677532D01*
X125705096Y-59303218D02*
X125624284Y-59330155D01*
X125543471Y-59410967D01*
X125489597Y-59518717D01*
X125489597Y-59626467D01*
X125516534Y-59707279D01*
X125597346Y-59841966D01*
X125678158Y-59922778D01*
X125812845Y-60003590D01*
X125893658Y-60030528D01*
X126001407Y-60030528D01*
X126109157Y-59976653D01*
X126163032Y-59922778D01*
X126216906Y-59815028D01*
X126216906Y-59761154D01*
X126028345Y-59572592D01*
X125920595Y-59680341D01*
X126513218Y-59572592D02*
X125947532Y-59006906D01*
X126163032Y-58791407D01*
X126243844Y-58764470D01*
X126297719Y-58764470D01*
X126378531Y-58791407D01*
X126459343Y-58872219D01*
X126486280Y-58953032D01*
X126486280Y-59006906D01*
X126459343Y-59087719D01*
X126243844Y-59303218D01*
X126944216Y-58387346D02*
X127321340Y-58764470D01*
X126594030Y-58306534D02*
X126863404Y-58845282D01*
X127213590Y-58495096D01*
X151278158Y-89810155D02*
X151197346Y-89837093D01*
X151116534Y-89917905D01*
X151062659Y-90025654D01*
X151062659Y-90133404D01*
X151089597Y-90214216D01*
X151170409Y-90348903D01*
X151251221Y-90429715D01*
X151385908Y-90510528D01*
X151466720Y-90537465D01*
X151574470Y-90537465D01*
X151682219Y-90483590D01*
X151736094Y-90429715D01*
X151789969Y-90321966D01*
X151789969Y-90268091D01*
X151601407Y-90079529D01*
X151493658Y-90187279D01*
X152086280Y-90079529D02*
X151520595Y-89513844D01*
X152409529Y-89756280D01*
X151843844Y-89190595D01*
X152678903Y-89486906D02*
X152113218Y-88921221D01*
X152247905Y-88786534D01*
X152355654Y-88732659D01*
X152463404Y-88732659D01*
X152544216Y-88759597D01*
X152678903Y-88840409D01*
X152759715Y-88921221D01*
X152840528Y-89055908D01*
X152867465Y-89136720D01*
X152867465Y-89244470D01*
X152813590Y-89352219D01*
X152678903Y-89486906D01*
X125678158Y-64410155D02*
X125597346Y-64437093D01*
X125516534Y-64517905D01*
X125462659Y-64625654D01*
X125462659Y-64733404D01*
X125489597Y-64814216D01*
X125570409Y-64948903D01*
X125651221Y-65029715D01*
X125785908Y-65110528D01*
X125866720Y-65137465D01*
X125974470Y-65137465D01*
X126082219Y-65083590D01*
X126136094Y-65029715D01*
X126189969Y-64921966D01*
X126189969Y-64868091D01*
X126001407Y-64679529D01*
X125893658Y-64787279D01*
X126486280Y-64679529D02*
X125920595Y-64113844D01*
X126809529Y-64356280D01*
X126243844Y-63790595D01*
X127078903Y-64086906D02*
X126513218Y-63521221D01*
X126647905Y-63386534D01*
X126755654Y-63332659D01*
X126863404Y-63332659D01*
X126944216Y-63359597D01*
X127078903Y-63440409D01*
X127159715Y-63521221D01*
X127240528Y-63655908D01*
X127267465Y-63736720D01*
X127267465Y-63844470D01*
X127213590Y-63952219D01*
X127078903Y-64086906D01*
X151289722Y-74812592D02*
X151208910Y-74839529D01*
X151128097Y-74920341D01*
X151074223Y-75028091D01*
X151074223Y-75135841D01*
X151101160Y-75216653D01*
X151181972Y-75351340D01*
X151262784Y-75432152D01*
X151397471Y-75512964D01*
X151478284Y-75539902D01*
X151586033Y-75539902D01*
X151693783Y-75486027D01*
X151747658Y-75432152D01*
X151801532Y-75324402D01*
X151801532Y-75270528D01*
X151612971Y-75081966D01*
X151505221Y-75189715D01*
X152097844Y-75081966D02*
X151532158Y-74516280D01*
X151747658Y-74300781D01*
X151828470Y-74273844D01*
X151882345Y-74273844D01*
X151963157Y-74300781D01*
X152043969Y-74381593D01*
X152070906Y-74462406D01*
X152070906Y-74516280D01*
X152043969Y-74597093D01*
X151828470Y-74812592D01*
X152124781Y-74031407D02*
X152124781Y-73977532D01*
X152151719Y-73896720D01*
X152286406Y-73762033D01*
X152367218Y-73735096D01*
X152421093Y-73735096D01*
X152501905Y-73762033D01*
X152555780Y-73815908D01*
X152609654Y-73923658D01*
X152609654Y-74570155D01*
X152959841Y-74219969D01*
X152663529Y-73492659D02*
X152663529Y-73438784D01*
X152690467Y-73357972D01*
X152825154Y-73223285D01*
X152905966Y-73196348D01*
X152959841Y-73196348D01*
X153040653Y-73223285D01*
X153094528Y-73277160D01*
X153148402Y-73384910D01*
X153148402Y-74031407D01*
X153498589Y-73681221D01*
X152078788Y-59691773D02*
X152348162Y-59422399D01*
X152186537Y-59907272D02*
X151809414Y-59153025D01*
X152563661Y-59530149D01*
X152752223Y-59341587D02*
X152186537Y-58775902D01*
X152321224Y-58641215D01*
X152428974Y-58587340D01*
X152536723Y-58587340D01*
X152617536Y-58614277D01*
X152752223Y-58695089D01*
X152833035Y-58775902D01*
X152913847Y-58910589D01*
X152940784Y-58991401D01*
X152940784Y-59099150D01*
X152886910Y-59206900D01*
X152752223Y-59341587D01*
X153587282Y-58398778D02*
X153587282Y-58452653D01*
X153533407Y-58560402D01*
X153479532Y-58614277D01*
X153371783Y-58668152D01*
X153264033Y-58668152D01*
X153183221Y-58641215D01*
X153048534Y-58560402D01*
X152967722Y-58479590D01*
X152886910Y-58344903D01*
X152859972Y-58264091D01*
X152859972Y-58156341D01*
X152913847Y-58048592D01*
X152967722Y-57994717D01*
X153075471Y-57940842D01*
X153129346Y-57940842D01*
X153802781Y-58398778D02*
X154233780Y-57967780D01*
X153668094Y-57294345D02*
X154422341Y-57671468D01*
X154045218Y-56917221D01*
X155122714Y-56971096D02*
X154664778Y-56890284D01*
X154799465Y-57294345D02*
X154233780Y-56728659D01*
X154449279Y-56513160D01*
X154530091Y-56486223D01*
X154583966Y-56486223D01*
X154664778Y-56513160D01*
X154745590Y-56593972D01*
X154772528Y-56674784D01*
X154772528Y-56728659D01*
X154745590Y-56809471D01*
X154530091Y-57024971D01*
X155068839Y-56432348D02*
X155257401Y-56243786D01*
X155634524Y-56459285D02*
X155365150Y-56728659D01*
X154799465Y-56162974D01*
X155068839Y-55893600D01*
X155769211Y-55731975D02*
X155580650Y-55920537D01*
X155876961Y-56216849D02*
X155311276Y-55651163D01*
X155580650Y-55381789D01*
X151289722Y-84972592D02*
X151208910Y-84999529D01*
X151128097Y-85080341D01*
X151074223Y-85188091D01*
X151074223Y-85295841D01*
X151101160Y-85376653D01*
X151181972Y-85511340D01*
X151262784Y-85592152D01*
X151397471Y-85672964D01*
X151478284Y-85699902D01*
X151586033Y-85699902D01*
X151693783Y-85646027D01*
X151747658Y-85592152D01*
X151801532Y-85484402D01*
X151801532Y-85430528D01*
X151612971Y-85241966D01*
X151505221Y-85349715D01*
X152097844Y-85241966D02*
X151532158Y-84676280D01*
X151747658Y-84460781D01*
X151828470Y-84433844D01*
X151882345Y-84433844D01*
X151963157Y-84460781D01*
X152043969Y-84541593D01*
X152070906Y-84622406D01*
X152070906Y-84676280D01*
X152043969Y-84757093D01*
X151828470Y-84972592D01*
X152959841Y-84379969D02*
X152636592Y-84703218D01*
X152798216Y-84541593D02*
X152232531Y-83975908D01*
X152259468Y-84110595D01*
X152259468Y-84218345D01*
X152232531Y-84299157D01*
X153229215Y-84110595D02*
X153336964Y-84002845D01*
X153363902Y-83922033D01*
X153363902Y-83868158D01*
X153336964Y-83733471D01*
X153256152Y-83598784D01*
X153040653Y-83383285D01*
X152959841Y-83356348D01*
X152905966Y-83356348D01*
X152825154Y-83383285D01*
X152717404Y-83491035D01*
X152690467Y-83571847D01*
X152690467Y-83625722D01*
X152717404Y-83706534D01*
X152852091Y-83841221D01*
X152932903Y-83868158D01*
X152986778Y-83868158D01*
X153067590Y-83841221D01*
X153175340Y-83733471D01*
X153202277Y-83652659D01*
X153202277Y-83598784D01*
X153175340Y-83517972D01*
X151278158Y-51710155D02*
X151197346Y-51737093D01*
X151116534Y-51817905D01*
X151062659Y-51925654D01*
X151062659Y-52033404D01*
X151089597Y-52114216D01*
X151170409Y-52248903D01*
X151251221Y-52329715D01*
X151385908Y-52410528D01*
X151466720Y-52437465D01*
X151574470Y-52437465D01*
X151682219Y-52383590D01*
X151736094Y-52329715D01*
X151789969Y-52221966D01*
X151789969Y-52168091D01*
X151601407Y-51979529D01*
X151493658Y-52087279D01*
X152086280Y-51979529D02*
X151520595Y-51413844D01*
X152409529Y-51656280D01*
X151843844Y-51090595D01*
X152678903Y-51386906D02*
X152113218Y-50821221D01*
X152247905Y-50686534D01*
X152355654Y-50632659D01*
X152463404Y-50632659D01*
X152544216Y-50659597D01*
X152678903Y-50740409D01*
X152759715Y-50821221D01*
X152840528Y-50955908D01*
X152867465Y-51036720D01*
X152867465Y-51144470D01*
X152813590Y-51252219D01*
X152678903Y-51386906D01*
X151289722Y-69732592D02*
X151208910Y-69759529D01*
X151128097Y-69840341D01*
X151074223Y-69948091D01*
X151074223Y-70055841D01*
X151101160Y-70136653D01*
X151181972Y-70271340D01*
X151262784Y-70352152D01*
X151397471Y-70432964D01*
X151478284Y-70459902D01*
X151586033Y-70459902D01*
X151693783Y-70406027D01*
X151747658Y-70352152D01*
X151801532Y-70244402D01*
X151801532Y-70190528D01*
X151612971Y-70001966D01*
X151505221Y-70109715D01*
X152097844Y-70001966D02*
X151532158Y-69436280D01*
X151747658Y-69220781D01*
X151828470Y-69193844D01*
X151882345Y-69193844D01*
X151963157Y-69220781D01*
X152043969Y-69301593D01*
X152070906Y-69382406D01*
X152070906Y-69436280D01*
X152043969Y-69517093D01*
X151828470Y-69732592D01*
X152124781Y-68951407D02*
X152124781Y-68897532D01*
X152151719Y-68816720D01*
X152286406Y-68682033D01*
X152367218Y-68655096D01*
X152421093Y-68655096D01*
X152501905Y-68682033D01*
X152555780Y-68735908D01*
X152609654Y-68843658D01*
X152609654Y-69490155D01*
X152959841Y-69139969D01*
X152879028Y-68089410D02*
X152771279Y-68197160D01*
X152744341Y-68277972D01*
X152744341Y-68331847D01*
X152771279Y-68466534D01*
X152852091Y-68601221D01*
X153067590Y-68816720D01*
X153148402Y-68843658D01*
X153202277Y-68843658D01*
X153283089Y-68816720D01*
X153390839Y-68708971D01*
X153417776Y-68628158D01*
X153417776Y-68574284D01*
X153390839Y-68493471D01*
X153256152Y-68358784D01*
X153175340Y-68331847D01*
X153121465Y-68331847D01*
X153040653Y-68358784D01*
X152932903Y-68466534D01*
X152905966Y-68547346D01*
X152905966Y-68601221D01*
X152932903Y-68682033D01*
X125135722Y-92592592D02*
X125054910Y-92619529D01*
X124974097Y-92700341D01*
X124920223Y-92808091D01*
X124920223Y-92915841D01*
X124947160Y-92996653D01*
X125027972Y-93131340D01*
X125108784Y-93212152D01*
X125243471Y-93292964D01*
X125324284Y-93319902D01*
X125432033Y-93319902D01*
X125539783Y-93266027D01*
X125593658Y-93212152D01*
X125647532Y-93104402D01*
X125647532Y-93050528D01*
X125458971Y-92861966D01*
X125351221Y-92969715D01*
X125943844Y-92861966D02*
X125378158Y-92296280D01*
X125593658Y-92080781D01*
X125674470Y-92053844D01*
X125728345Y-92053844D01*
X125809157Y-92080781D01*
X125889969Y-92161593D01*
X125916906Y-92242406D01*
X125916906Y-92296280D01*
X125889969Y-92377093D01*
X125674470Y-92592592D01*
X126805841Y-91999969D02*
X126482592Y-92323218D01*
X126644216Y-92161593D02*
X126078531Y-91595908D01*
X126105468Y-91730595D01*
X126105468Y-91838345D01*
X126078531Y-91919157D01*
X126913590Y-91137972D02*
X127290714Y-91515096D01*
X126563404Y-91057160D02*
X126832778Y-91595908D01*
X127182964Y-91245722D01*
X152030375Y-72555435D02*
X151572439Y-72474622D01*
X151707126Y-72878683D02*
X151141441Y-72312998D01*
X151356940Y-72097499D01*
X151437752Y-72070561D01*
X151491627Y-72070561D01*
X151572439Y-72097499D01*
X151653251Y-72178311D01*
X151680189Y-72259123D01*
X151680189Y-72312998D01*
X151653251Y-72393810D01*
X151437752Y-72609309D01*
X151707126Y-71747312D02*
X152165062Y-72205248D01*
X152245874Y-72232186D01*
X152299749Y-72232186D01*
X152380561Y-72205248D01*
X152488311Y-72097499D01*
X152515248Y-72016687D01*
X152515248Y-71962812D01*
X152488311Y-71881999D01*
X152030375Y-71424064D01*
X152865435Y-71720375D02*
X152299749Y-71154690D01*
X153188683Y-71397126D01*
X152622998Y-70831441D01*
X151289722Y-61858592D02*
X151208910Y-61885529D01*
X151128097Y-61966341D01*
X151074223Y-62074091D01*
X151074223Y-62181841D01*
X151101160Y-62262653D01*
X151181972Y-62397340D01*
X151262784Y-62478152D01*
X151397471Y-62558964D01*
X151478284Y-62585902D01*
X151586033Y-62585902D01*
X151693783Y-62532027D01*
X151747658Y-62478152D01*
X151801532Y-62370402D01*
X151801532Y-62316528D01*
X151612971Y-62127966D01*
X151505221Y-62235715D01*
X152097844Y-62127966D02*
X151532158Y-61562280D01*
X151747658Y-61346781D01*
X151828470Y-61319844D01*
X151882345Y-61319844D01*
X151963157Y-61346781D01*
X152043969Y-61427593D01*
X152070906Y-61508406D01*
X152070906Y-61562280D01*
X152043969Y-61643093D01*
X151828470Y-61858592D01*
X152124781Y-61077407D02*
X152124781Y-61023532D01*
X152151719Y-60942720D01*
X152286406Y-60808033D01*
X152367218Y-60781096D01*
X152421093Y-60781096D01*
X152501905Y-60808033D01*
X152555780Y-60861908D01*
X152609654Y-60969658D01*
X152609654Y-61616155D01*
X152959841Y-61265969D01*
X152959841Y-60619471D02*
X152879028Y-60646409D01*
X152825154Y-60646409D01*
X152744341Y-60619471D01*
X152717404Y-60592534D01*
X152690467Y-60511722D01*
X152690467Y-60457847D01*
X152717404Y-60377035D01*
X152825154Y-60269285D01*
X152905966Y-60242348D01*
X152959841Y-60242348D01*
X153040653Y-60269285D01*
X153067590Y-60296223D01*
X153094528Y-60377035D01*
X153094528Y-60430910D01*
X153067590Y-60511722D01*
X152959841Y-60619471D01*
X152932903Y-60700284D01*
X152932903Y-60754158D01*
X152959841Y-60834971D01*
X153067590Y-60942720D01*
X153148402Y-60969658D01*
X153202277Y-60969658D01*
X153283089Y-60942720D01*
X153390839Y-60834971D01*
X153417776Y-60754158D01*
X153417776Y-60700284D01*
X153390839Y-60619471D01*
X153283089Y-60511722D01*
X153202277Y-60484784D01*
X153148402Y-60484784D01*
X153067590Y-60511722D01*
X151278158Y-77110155D02*
X151197346Y-77137093D01*
X151116534Y-77217905D01*
X151062659Y-77325654D01*
X151062659Y-77433404D01*
X151089597Y-77514216D01*
X151170409Y-77648903D01*
X151251221Y-77729715D01*
X151385908Y-77810528D01*
X151466720Y-77837465D01*
X151574470Y-77837465D01*
X151682219Y-77783590D01*
X151736094Y-77729715D01*
X151789969Y-77621966D01*
X151789969Y-77568091D01*
X151601407Y-77379529D01*
X151493658Y-77487279D01*
X152086280Y-77379529D02*
X151520595Y-76813844D01*
X152409529Y-77056280D01*
X151843844Y-76490595D01*
X152678903Y-76786906D02*
X152113218Y-76221221D01*
X152247905Y-76086534D01*
X152355654Y-76032659D01*
X152463404Y-76032659D01*
X152544216Y-76059597D01*
X152678903Y-76140409D01*
X152759715Y-76221221D01*
X152840528Y-76355908D01*
X152867465Y-76436720D01*
X152867465Y-76544470D01*
X152813590Y-76652219D01*
X152678903Y-76786906D01*
X151289722Y-95132592D02*
X151208910Y-95159529D01*
X151128097Y-95240341D01*
X151074223Y-95348091D01*
X151074223Y-95455841D01*
X151101160Y-95536653D01*
X151181972Y-95671340D01*
X151262784Y-95752152D01*
X151397471Y-95832964D01*
X151478284Y-95859902D01*
X151586033Y-95859902D01*
X151693783Y-95806027D01*
X151747658Y-95752152D01*
X151801532Y-95644402D01*
X151801532Y-95590528D01*
X151612971Y-95401966D01*
X151505221Y-95509715D01*
X152097844Y-95401966D02*
X151532158Y-94836280D01*
X151747658Y-94620781D01*
X151828470Y-94593844D01*
X151882345Y-94593844D01*
X151963157Y-94620781D01*
X152043969Y-94701593D01*
X152070906Y-94782406D01*
X152070906Y-94836280D01*
X152043969Y-94917093D01*
X151828470Y-95132592D01*
X152959841Y-94539969D02*
X152636592Y-94863218D01*
X152798216Y-94701593D02*
X152232531Y-94135908D01*
X152259468Y-94270595D01*
X152259468Y-94378345D01*
X152232531Y-94459157D01*
X152879028Y-93489410D02*
X152771279Y-93597160D01*
X152744341Y-93677972D01*
X152744341Y-93731847D01*
X152771279Y-93866534D01*
X152852091Y-94001221D01*
X153067590Y-94216720D01*
X153148402Y-94243658D01*
X153202277Y-94243658D01*
X153283089Y-94216720D01*
X153390839Y-94108971D01*
X153417776Y-94028158D01*
X153417776Y-93974284D01*
X153390839Y-93893471D01*
X153256152Y-93758784D01*
X153175340Y-93731847D01*
X153121465Y-93731847D01*
X153040653Y-93758784D01*
X152932903Y-93866534D01*
X152905966Y-93947346D01*
X152905966Y-94001221D01*
X152932903Y-94082033D01*
X151289722Y-67202592D02*
X151208910Y-67229529D01*
X151128097Y-67310341D01*
X151074223Y-67418091D01*
X151074223Y-67525841D01*
X151101160Y-67606653D01*
X151181972Y-67741340D01*
X151262784Y-67822152D01*
X151397471Y-67902964D01*
X151478284Y-67929902D01*
X151586033Y-67929902D01*
X151693783Y-67876027D01*
X151747658Y-67822152D01*
X151801532Y-67714402D01*
X151801532Y-67660528D01*
X151612971Y-67471966D01*
X151505221Y-67579715D01*
X152097844Y-67471966D02*
X151532158Y-66906280D01*
X151747658Y-66690781D01*
X151828470Y-66663844D01*
X151882345Y-66663844D01*
X151963157Y-66690781D01*
X152043969Y-66771593D01*
X152070906Y-66852406D01*
X152070906Y-66906280D01*
X152043969Y-66987093D01*
X151828470Y-67202592D01*
X152124781Y-66421407D02*
X152124781Y-66367532D01*
X152151719Y-66286720D01*
X152286406Y-66152033D01*
X152367218Y-66125096D01*
X152421093Y-66125096D01*
X152501905Y-66152033D01*
X152555780Y-66205908D01*
X152609654Y-66313658D01*
X152609654Y-66960155D01*
X152959841Y-66609969D01*
X152582717Y-65855722D02*
X152959841Y-65478598D01*
X153283089Y-66286720D01*
X125705096Y-46603218D02*
X125624284Y-46630155D01*
X125543471Y-46710967D01*
X125489597Y-46818717D01*
X125489597Y-46926467D01*
X125516534Y-47007279D01*
X125597346Y-47141966D01*
X125678158Y-47222778D01*
X125812845Y-47303590D01*
X125893658Y-47330528D01*
X126001407Y-47330528D01*
X126109157Y-47276653D01*
X126163032Y-47222778D01*
X126216906Y-47115028D01*
X126216906Y-47061154D01*
X126028345Y-46872592D01*
X125920595Y-46980341D01*
X126513218Y-46872592D02*
X125947532Y-46306906D01*
X126163032Y-46091407D01*
X126243844Y-46064470D01*
X126297719Y-46064470D01*
X126378531Y-46091407D01*
X126459343Y-46172219D01*
X126486280Y-46253032D01*
X126486280Y-46306906D01*
X126459343Y-46387719D01*
X126243844Y-46603218D01*
X126620967Y-45633471D02*
X126674842Y-45579597D01*
X126755654Y-45552659D01*
X126809529Y-45552659D01*
X126890341Y-45579597D01*
X127025028Y-45660409D01*
X127159715Y-45795096D01*
X127240528Y-45929783D01*
X127267465Y-46010595D01*
X127267465Y-46064470D01*
X127240528Y-46145282D01*
X127186653Y-46199157D01*
X127105841Y-46226094D01*
X127051966Y-46226094D01*
X126971154Y-46199157D01*
X126836467Y-46118345D01*
X126701780Y-45983658D01*
X126620967Y-45848971D01*
X126594030Y-45768158D01*
X126594030Y-45714284D01*
X126620967Y-45633471D01*
X125678158Y-51710155D02*
X125597346Y-51737093D01*
X125516534Y-51817905D01*
X125462659Y-51925654D01*
X125462659Y-52033404D01*
X125489597Y-52114216D01*
X125570409Y-52248903D01*
X125651221Y-52329715D01*
X125785908Y-52410528D01*
X125866720Y-52437465D01*
X125974470Y-52437465D01*
X126082219Y-52383590D01*
X126136094Y-52329715D01*
X126189969Y-52221966D01*
X126189969Y-52168091D01*
X126001407Y-51979529D01*
X125893658Y-52087279D01*
X126486280Y-51979529D02*
X125920595Y-51413844D01*
X126809529Y-51656280D01*
X126243844Y-51090595D01*
X127078903Y-51386906D02*
X126513218Y-50821221D01*
X126647905Y-50686534D01*
X126755654Y-50632659D01*
X126863404Y-50632659D01*
X126944216Y-50659597D01*
X127078903Y-50740409D01*
X127159715Y-50821221D01*
X127240528Y-50955908D01*
X127267465Y-51036720D01*
X127267465Y-51144470D01*
X127213590Y-51252219D01*
X127078903Y-51386906D01*
X125181722Y-95132592D02*
X125100910Y-95159529D01*
X125020097Y-95240341D01*
X124966223Y-95348091D01*
X124966223Y-95455841D01*
X124993160Y-95536653D01*
X125073972Y-95671340D01*
X125154784Y-95752152D01*
X125289471Y-95832964D01*
X125370284Y-95859902D01*
X125478033Y-95859902D01*
X125585783Y-95806027D01*
X125639658Y-95752152D01*
X125693532Y-95644402D01*
X125693532Y-95590528D01*
X125504971Y-95401966D01*
X125397221Y-95509715D01*
X125989844Y-95401966D02*
X125424158Y-94836280D01*
X125639658Y-94620781D01*
X125720470Y-94593844D01*
X125774345Y-94593844D01*
X125855157Y-94620781D01*
X125935969Y-94701593D01*
X125962906Y-94782406D01*
X125962906Y-94836280D01*
X125935969Y-94917093D01*
X125720470Y-95132592D01*
X126851841Y-94539969D02*
X126528592Y-94863218D01*
X126690216Y-94701593D02*
X126124531Y-94135908D01*
X126151468Y-94270595D01*
X126151468Y-94378345D01*
X126124531Y-94459157D01*
X126797966Y-93462473D02*
X126528592Y-93731847D01*
X126771028Y-94028158D01*
X126771028Y-93974284D01*
X126797966Y-93893471D01*
X126932653Y-93758784D01*
X127013465Y-93731847D01*
X127067340Y-93731847D01*
X127148152Y-93758784D01*
X127282839Y-93893471D01*
X127309776Y-93974284D01*
X127309776Y-94028158D01*
X127282839Y-94108971D01*
X127148152Y-94243658D01*
X127067340Y-94270595D01*
X127013465Y-94270595D01*
X151289722Y-87512592D02*
X151208910Y-87539529D01*
X151128097Y-87620341D01*
X151074223Y-87728091D01*
X151074223Y-87835841D01*
X151101160Y-87916653D01*
X151181972Y-88051340D01*
X151262784Y-88132152D01*
X151397471Y-88212964D01*
X151478284Y-88239902D01*
X151586033Y-88239902D01*
X151693783Y-88186027D01*
X151747658Y-88132152D01*
X151801532Y-88024402D01*
X151801532Y-87970528D01*
X151612971Y-87781966D01*
X151505221Y-87889715D01*
X152097844Y-87781966D02*
X151532158Y-87216280D01*
X151747658Y-87000781D01*
X151828470Y-86973844D01*
X151882345Y-86973844D01*
X151963157Y-87000781D01*
X152043969Y-87081593D01*
X152070906Y-87162406D01*
X152070906Y-87216280D01*
X152043969Y-87297093D01*
X151828470Y-87512592D01*
X152959841Y-86919969D02*
X152636592Y-87243218D01*
X152798216Y-87081593D02*
X152232531Y-86515908D01*
X152259468Y-86650595D01*
X152259468Y-86758345D01*
X152232531Y-86839157D01*
X152959841Y-86273471D02*
X152879028Y-86300409D01*
X152825154Y-86300409D01*
X152744341Y-86273471D01*
X152717404Y-86246534D01*
X152690467Y-86165722D01*
X152690467Y-86111847D01*
X152717404Y-86031035D01*
X152825154Y-85923285D01*
X152905966Y-85896348D01*
X152959841Y-85896348D01*
X153040653Y-85923285D01*
X153067590Y-85950223D01*
X153094528Y-86031035D01*
X153094528Y-86084910D01*
X153067590Y-86165722D01*
X152959841Y-86273471D01*
X152932903Y-86354284D01*
X152932903Y-86408158D01*
X152959841Y-86488971D01*
X153067590Y-86596720D01*
X153148402Y-86623658D01*
X153202277Y-86623658D01*
X153283089Y-86596720D01*
X153390839Y-86488971D01*
X153417776Y-86408158D01*
X153417776Y-86354284D01*
X153390839Y-86273471D01*
X153283089Y-86165722D01*
X153202277Y-86138784D01*
X153148402Y-86138784D01*
X153067590Y-86165722D01*
X151289722Y-92592592D02*
X151208910Y-92619529D01*
X151128097Y-92700341D01*
X151074223Y-92808091D01*
X151074223Y-92915841D01*
X151101160Y-92996653D01*
X151181972Y-93131340D01*
X151262784Y-93212152D01*
X151397471Y-93292964D01*
X151478284Y-93319902D01*
X151586033Y-93319902D01*
X151693783Y-93266027D01*
X151747658Y-93212152D01*
X151801532Y-93104402D01*
X151801532Y-93050528D01*
X151612971Y-92861966D01*
X151505221Y-92969715D01*
X152097844Y-92861966D02*
X151532158Y-92296280D01*
X151747658Y-92080781D01*
X151828470Y-92053844D01*
X151882345Y-92053844D01*
X151963157Y-92080781D01*
X152043969Y-92161593D01*
X152070906Y-92242406D01*
X152070906Y-92296280D01*
X152043969Y-92377093D01*
X151828470Y-92592592D01*
X152959841Y-91999969D02*
X152636592Y-92323218D01*
X152798216Y-92161593D02*
X152232531Y-91595908D01*
X152259468Y-91730595D01*
X152259468Y-91838345D01*
X152232531Y-91919157D01*
X152582717Y-91245722D02*
X152959841Y-90868598D01*
X153283089Y-91676720D01*
X125605096Y-54223218D02*
X125524284Y-54250155D01*
X125443471Y-54330967D01*
X125389597Y-54438717D01*
X125389597Y-54546467D01*
X125416534Y-54627279D01*
X125497346Y-54761966D01*
X125578158Y-54842778D01*
X125712845Y-54923590D01*
X125793658Y-54950528D01*
X125901407Y-54950528D01*
X126009157Y-54896653D01*
X126063032Y-54842778D01*
X126116906Y-54735028D01*
X126116906Y-54681154D01*
X125928345Y-54492592D01*
X125820595Y-54600341D01*
X126413218Y-54492592D02*
X125847532Y-53926906D01*
X126063032Y-53711407D01*
X126143844Y-53684470D01*
X126197719Y-53684470D01*
X126278531Y-53711407D01*
X126359343Y-53792219D01*
X126386280Y-53873032D01*
X126386280Y-53926906D01*
X126359343Y-54007719D01*
X126143844Y-54223218D01*
X126440155Y-53442033D02*
X126440155Y-53388158D01*
X126467093Y-53307346D01*
X126601780Y-53172659D01*
X126682592Y-53145722D01*
X126736467Y-53145722D01*
X126817279Y-53172659D01*
X126871154Y-53226534D01*
X126925028Y-53334284D01*
X126925028Y-53980781D01*
X127275215Y-53630595D01*
X125805096Y-69433218D02*
X125724284Y-69460155D01*
X125643471Y-69540967D01*
X125589597Y-69648717D01*
X125589597Y-69756467D01*
X125616534Y-69837279D01*
X125697346Y-69971966D01*
X125778158Y-70052778D01*
X125912845Y-70133590D01*
X125993658Y-70160528D01*
X126101407Y-70160528D01*
X126209157Y-70106653D01*
X126263032Y-70052778D01*
X126316906Y-69945028D01*
X126316906Y-69891154D01*
X126128345Y-69702592D01*
X126020595Y-69810341D01*
X126613218Y-69702592D02*
X126047532Y-69136906D01*
X126263032Y-68921407D01*
X126343844Y-68894470D01*
X126397719Y-68894470D01*
X126478531Y-68921407D01*
X126559343Y-69002219D01*
X126586280Y-69083032D01*
X126586280Y-69136906D01*
X126559343Y-69217719D01*
X126343844Y-69433218D01*
X126559343Y-68625096D02*
X126936467Y-68247972D01*
X127259715Y-69056094D01*
X125705096Y-56763218D02*
X125624284Y-56790155D01*
X125543471Y-56870967D01*
X125489597Y-56978717D01*
X125489597Y-57086467D01*
X125516534Y-57167279D01*
X125597346Y-57301966D01*
X125678158Y-57382778D01*
X125812845Y-57463590D01*
X125893658Y-57490528D01*
X126001407Y-57490528D01*
X126109157Y-57436653D01*
X126163032Y-57382778D01*
X126216906Y-57275028D01*
X126216906Y-57221154D01*
X126028345Y-57032592D01*
X125920595Y-57140341D01*
X126513218Y-57032592D02*
X125947532Y-56466906D01*
X126163032Y-56251407D01*
X126243844Y-56224470D01*
X126297719Y-56224470D01*
X126378531Y-56251407D01*
X126459343Y-56332219D01*
X126486280Y-56413032D01*
X126486280Y-56466906D01*
X126459343Y-56547719D01*
X126243844Y-56763218D01*
X126459343Y-55955096D02*
X126809529Y-55604910D01*
X126836467Y-56008971D01*
X126917279Y-55928158D01*
X126998091Y-55901221D01*
X127051966Y-55901221D01*
X127132778Y-55928158D01*
X127267465Y-56062845D01*
X127294402Y-56143658D01*
X127294402Y-56197532D01*
X127267465Y-56278345D01*
X127105841Y-56439969D01*
X127025028Y-56466906D01*
X126971154Y-56466906D01*
X125705096Y-74543218D02*
X125624284Y-74570155D01*
X125543471Y-74650967D01*
X125489597Y-74758717D01*
X125489597Y-74866467D01*
X125516534Y-74947279D01*
X125597346Y-75081966D01*
X125678158Y-75162778D01*
X125812845Y-75243590D01*
X125893658Y-75270528D01*
X126001407Y-75270528D01*
X126109157Y-75216653D01*
X126163032Y-75162778D01*
X126216906Y-75055028D01*
X126216906Y-75001154D01*
X126028345Y-74812592D01*
X125920595Y-74920341D01*
X126513218Y-74812592D02*
X125947532Y-74246906D01*
X126163032Y-74031407D01*
X126243844Y-74004470D01*
X126297719Y-74004470D01*
X126378531Y-74031407D01*
X126459343Y-74112219D01*
X126486280Y-74193032D01*
X126486280Y-74246906D01*
X126459343Y-74327719D01*
X126243844Y-74543218D01*
X127105841Y-74219969D02*
X127213590Y-74112219D01*
X127240528Y-74031407D01*
X127240528Y-73977532D01*
X127213590Y-73842845D01*
X127132778Y-73708158D01*
X126917279Y-73492659D01*
X126836467Y-73465722D01*
X126782592Y-73465722D01*
X126701780Y-73492659D01*
X126594030Y-73600409D01*
X126567093Y-73681221D01*
X126567093Y-73735096D01*
X126594030Y-73815908D01*
X126728717Y-73950595D01*
X126809529Y-73977532D01*
X126863404Y-73977532D01*
X126944216Y-73950595D01*
X127051966Y-73842845D01*
X127078903Y-73762033D01*
X127078903Y-73708158D01*
X127051966Y-73627346D01*
X151112473Y-49681966D02*
X151866720Y-50059089D01*
X151489597Y-49304842D01*
X152189969Y-49681966D02*
X152297719Y-49628091D01*
X152432406Y-49493404D01*
X152459343Y-49412592D01*
X152459343Y-49358717D01*
X152432406Y-49277905D01*
X152378531Y-49224030D01*
X152297719Y-49197093D01*
X152243844Y-49197093D01*
X152163032Y-49224030D01*
X152028345Y-49304842D01*
X151947532Y-49331780D01*
X151893658Y-49331780D01*
X151812845Y-49304842D01*
X151758971Y-49250967D01*
X151732033Y-49170155D01*
X151732033Y-49116280D01*
X151758971Y-49035468D01*
X151893658Y-48900781D01*
X152001407Y-48846906D01*
X152620967Y-48766094D02*
X152890341Y-49035468D01*
X152136094Y-48658345D02*
X152620967Y-48766094D01*
X152513218Y-48281221D01*
X153213590Y-48658345D02*
X153321340Y-48604470D01*
X153456027Y-48469783D01*
X153482964Y-48388971D01*
X153482964Y-48335096D01*
X153456027Y-48254284D01*
X153402152Y-48200409D01*
X153321340Y-48173471D01*
X153267465Y-48173471D01*
X153186653Y-48200409D01*
X153051966Y-48281221D01*
X152971154Y-48308158D01*
X152917279Y-48308158D01*
X152836467Y-48281221D01*
X152782592Y-48227346D01*
X152755654Y-48146534D01*
X152755654Y-48092659D01*
X152782592Y-48011847D01*
X152917279Y-47877160D01*
X153025028Y-47823285D01*
X151081847Y-57102592D02*
X151432033Y-56752406D01*
X151458971Y-57156467D01*
X151539783Y-57075654D01*
X151620595Y-57048717D01*
X151674470Y-57048717D01*
X151755282Y-57075654D01*
X151889969Y-57210341D01*
X151916906Y-57291154D01*
X151916906Y-57345028D01*
X151889969Y-57425841D01*
X151728345Y-57587465D01*
X151647532Y-57614402D01*
X151593658Y-57614402D01*
X151593658Y-56590781D02*
X152347905Y-56967905D01*
X151970781Y-56213658D01*
X152105468Y-56078971D02*
X152455654Y-55728784D01*
X152482592Y-56132845D01*
X152563404Y-56052033D01*
X152644216Y-56025096D01*
X152698091Y-56025096D01*
X152778903Y-56052033D01*
X152913590Y-56186720D01*
X152940528Y-56267532D01*
X152940528Y-56321407D01*
X152913590Y-56402219D01*
X152751966Y-56563844D01*
X152671154Y-56590781D01*
X152617279Y-56590781D01*
X151145129Y-47139309D02*
X151899377Y-47516433D01*
X151522253Y-46762186D01*
X152168751Y-46654436D02*
X152276500Y-46600561D01*
X152330375Y-46600561D01*
X152411187Y-46627499D01*
X152492000Y-46708311D01*
X152518937Y-46789123D01*
X152518937Y-46842998D01*
X152492000Y-46923810D01*
X152276500Y-47139309D01*
X151710815Y-46573624D01*
X151899377Y-46385062D01*
X151980189Y-46358125D01*
X152034064Y-46358125D01*
X152114876Y-46385062D01*
X152168751Y-46438937D01*
X152195688Y-46519749D01*
X152195688Y-46573624D01*
X152168751Y-46654436D01*
X151980189Y-46842998D01*
X152276500Y-46007938D02*
X152734436Y-46465874D01*
X152815248Y-46492812D01*
X152869123Y-46492812D01*
X152949935Y-46465874D01*
X153057685Y-46358125D01*
X153084622Y-46277312D01*
X153084622Y-46223438D01*
X153057685Y-46142625D01*
X152599749Y-45684690D01*
X153380934Y-45981001D02*
X153488683Y-45927126D01*
X153623370Y-45792439D01*
X153650308Y-45711627D01*
X153650308Y-45657752D01*
X153623370Y-45576940D01*
X153569496Y-45523065D01*
X153488683Y-45496128D01*
X153434809Y-45496128D01*
X153353996Y-45523065D01*
X153219309Y-45603877D01*
X153138497Y-45630815D01*
X153084622Y-45630815D01*
X153003810Y-45603877D01*
X152949935Y-45550003D01*
X152922998Y-45469190D01*
X152922998Y-45415316D01*
X152949935Y-45334503D01*
X153084622Y-45199816D01*
X153192372Y-45145942D01*
X151289722Y-82432592D02*
X151208910Y-82459529D01*
X151128097Y-82540341D01*
X151074223Y-82648091D01*
X151074223Y-82755841D01*
X151101160Y-82836653D01*
X151181972Y-82971340D01*
X151262784Y-83052152D01*
X151397471Y-83132964D01*
X151478284Y-83159902D01*
X151586033Y-83159902D01*
X151693783Y-83106027D01*
X151747658Y-83052152D01*
X151801532Y-82944402D01*
X151801532Y-82890528D01*
X151612971Y-82701966D01*
X151505221Y-82809715D01*
X152097844Y-82701966D02*
X151532158Y-82136280D01*
X151747658Y-81920781D01*
X151828470Y-81893844D01*
X151882345Y-81893844D01*
X151963157Y-81920781D01*
X152043969Y-82001593D01*
X152070906Y-82082406D01*
X152070906Y-82136280D01*
X152043969Y-82217093D01*
X151828470Y-82432592D01*
X152124781Y-81651407D02*
X152124781Y-81597532D01*
X152151719Y-81516720D01*
X152286406Y-81382033D01*
X152367218Y-81355096D01*
X152421093Y-81355096D01*
X152501905Y-81382033D01*
X152555780Y-81435908D01*
X152609654Y-81543658D01*
X152609654Y-82190155D01*
X152959841Y-81839969D01*
X152744341Y-80924097D02*
X152798216Y-80870223D01*
X152879028Y-80843285D01*
X152932903Y-80843285D01*
X153013715Y-80870223D01*
X153148402Y-80951035D01*
X153283089Y-81085722D01*
X153363902Y-81220409D01*
X153390839Y-81301221D01*
X153390839Y-81355096D01*
X153363902Y-81435908D01*
X153310027Y-81489783D01*
X153229215Y-81516720D01*
X153175340Y-81516720D01*
X153094528Y-81489783D01*
X152959841Y-81408971D01*
X152825154Y-81274284D01*
X152744341Y-81139597D01*
X152717404Y-81058784D01*
X152717404Y-81004910D01*
X152744341Y-80924097D01*
X143096761Y-97135809D02*
X143211047Y-97173904D01*
X143401523Y-97173904D01*
X143477714Y-97135809D01*
X143515809Y-97097714D01*
X143553904Y-97021523D01*
X143553904Y-96945333D01*
X143515809Y-96869142D01*
X143477714Y-96831047D01*
X143401523Y-96792952D01*
X143249142Y-96754857D01*
X143172952Y-96716761D01*
X143134857Y-96678666D01*
X143096761Y-96602476D01*
X143096761Y-96526285D01*
X143134857Y-96450095D01*
X143172952Y-96412000D01*
X143249142Y-96373904D01*
X143439619Y-96373904D01*
X143553904Y-96412000D01*
X143820571Y-96373904D02*
X144011047Y-97173904D01*
X144163428Y-96602476D01*
X144315809Y-97173904D01*
X144506285Y-96373904D01*
X144811047Y-97173904D02*
X144811047Y-96373904D01*
X145001523Y-96373904D01*
X145115809Y-96412000D01*
X145192000Y-96488190D01*
X145230095Y-96564380D01*
X145268190Y-96716761D01*
X145268190Y-96831047D01*
X145230095Y-96983428D01*
X145192000Y-97059619D01*
X145115809Y-97135809D01*
X145001523Y-97173904D01*
X144811047Y-97173904D01*
X145611047Y-97173904D02*
X145611047Y-96373904D01*
X146144380Y-96373904D02*
X146296761Y-96373904D01*
X146372952Y-96412000D01*
X146449142Y-96488190D01*
X146487238Y-96640571D01*
X146487238Y-96907238D01*
X146449142Y-97059619D01*
X146372952Y-97135809D01*
X146296761Y-97173904D01*
X146144380Y-97173904D01*
X146068190Y-97135809D01*
X145992000Y-97059619D01*
X145953904Y-96907238D01*
X145953904Y-96640571D01*
X145992000Y-96488190D01*
X146068190Y-96412000D01*
X146144380Y-96373904D01*
X125035722Y-82432592D02*
X124954910Y-82459529D01*
X124874097Y-82540341D01*
X124820223Y-82648091D01*
X124820223Y-82755841D01*
X124847160Y-82836653D01*
X124927972Y-82971340D01*
X125008784Y-83052152D01*
X125143471Y-83132964D01*
X125224284Y-83159902D01*
X125332033Y-83159902D01*
X125439783Y-83106027D01*
X125493658Y-83052152D01*
X125547532Y-82944402D01*
X125547532Y-82890528D01*
X125358971Y-82701966D01*
X125251221Y-82809715D01*
X125843844Y-82701966D02*
X125278158Y-82136280D01*
X125493658Y-81920781D01*
X125574470Y-81893844D01*
X125628345Y-81893844D01*
X125709157Y-81920781D01*
X125789969Y-82001593D01*
X125816906Y-82082406D01*
X125816906Y-82136280D01*
X125789969Y-82217093D01*
X125574470Y-82432592D01*
X126705841Y-81839969D02*
X126382592Y-82163218D01*
X126544216Y-82001593D02*
X125978531Y-81435908D01*
X126005468Y-81570595D01*
X126005468Y-81678345D01*
X125978531Y-81759157D01*
X127244589Y-81301221D02*
X126921340Y-81624470D01*
X127082964Y-81462845D02*
X126517279Y-80897160D01*
X126544216Y-81031847D01*
X126544216Y-81139597D01*
X126517279Y-81220409D01*
X125705096Y-72003218D02*
X125624284Y-72030155D01*
X125543471Y-72110967D01*
X125489597Y-72218717D01*
X125489597Y-72326467D01*
X125516534Y-72407279D01*
X125597346Y-72541966D01*
X125678158Y-72622778D01*
X125812845Y-72703590D01*
X125893658Y-72730528D01*
X126001407Y-72730528D01*
X126109157Y-72676653D01*
X126163032Y-72622778D01*
X126216906Y-72515028D01*
X126216906Y-72461154D01*
X126028345Y-72272592D01*
X125920595Y-72380341D01*
X126513218Y-72272592D02*
X125947532Y-71706906D01*
X126163032Y-71491407D01*
X126243844Y-71464470D01*
X126297719Y-71464470D01*
X126378531Y-71491407D01*
X126459343Y-71572219D01*
X126486280Y-71653032D01*
X126486280Y-71706906D01*
X126459343Y-71787719D01*
X126243844Y-72003218D01*
X126836467Y-71302845D02*
X126755654Y-71329783D01*
X126701780Y-71329783D01*
X126620967Y-71302845D01*
X126594030Y-71275908D01*
X126567093Y-71195096D01*
X126567093Y-71141221D01*
X126594030Y-71060409D01*
X126701780Y-70952659D01*
X126782592Y-70925722D01*
X126836467Y-70925722D01*
X126917279Y-70952659D01*
X126944216Y-70979597D01*
X126971154Y-71060409D01*
X126971154Y-71114284D01*
X126944216Y-71195096D01*
X126836467Y-71302845D01*
X126809529Y-71383658D01*
X126809529Y-71437532D01*
X126836467Y-71518345D01*
X126944216Y-71626094D01*
X127025028Y-71653032D01*
X127078903Y-71653032D01*
X127159715Y-71626094D01*
X127267465Y-71518345D01*
X127294402Y-71437532D01*
X127294402Y-71383658D01*
X127267465Y-71302845D01*
X127159715Y-71195096D01*
X127078903Y-71168158D01*
X127025028Y-71168158D01*
X126944216Y-71195096D01*
X131682476Y-97135809D02*
X131796761Y-97173904D01*
X131987238Y-97173904D01*
X132063428Y-97135809D01*
X132101523Y-97097714D01*
X132139619Y-97021523D01*
X132139619Y-96945333D01*
X132101523Y-96869142D01*
X132063428Y-96831047D01*
X131987238Y-96792952D01*
X131834857Y-96754857D01*
X131758666Y-96716761D01*
X131720571Y-96678666D01*
X131682476Y-96602476D01*
X131682476Y-96526285D01*
X131720571Y-96450095D01*
X131758666Y-96412000D01*
X131834857Y-96373904D01*
X132025333Y-96373904D01*
X132139619Y-96412000D01*
X132406285Y-96373904D02*
X132596761Y-97173904D01*
X132749142Y-96602476D01*
X132901523Y-97173904D01*
X133092000Y-96373904D01*
X133853904Y-97097714D02*
X133815809Y-97135809D01*
X133701523Y-97173904D01*
X133625333Y-97173904D01*
X133511047Y-97135809D01*
X133434857Y-97059619D01*
X133396761Y-96983428D01*
X133358666Y-96831047D01*
X133358666Y-96716761D01*
X133396761Y-96564380D01*
X133434857Y-96488190D01*
X133511047Y-96412000D01*
X133625333Y-96373904D01*
X133701523Y-96373904D01*
X133815809Y-96412000D01*
X133853904Y-96450095D01*
X134577714Y-97173904D02*
X134196761Y-97173904D01*
X134196761Y-96373904D01*
X134844380Y-97173904D02*
X134844380Y-96373904D01*
X135301523Y-97173904D02*
X134958666Y-96716761D01*
X135301523Y-96373904D02*
X134844380Y-96831047D01*
X151289722Y-79902592D02*
X151208910Y-79929529D01*
X151128097Y-80010341D01*
X151074223Y-80118091D01*
X151074223Y-80225841D01*
X151101160Y-80306653D01*
X151181972Y-80441340D01*
X151262784Y-80522152D01*
X151397471Y-80602964D01*
X151478284Y-80629902D01*
X151586033Y-80629902D01*
X151693783Y-80576027D01*
X151747658Y-80522152D01*
X151801532Y-80414402D01*
X151801532Y-80360528D01*
X151612971Y-80171966D01*
X151505221Y-80279715D01*
X152097844Y-80171966D02*
X151532158Y-79606280D01*
X151747658Y-79390781D01*
X151828470Y-79363844D01*
X151882345Y-79363844D01*
X151963157Y-79390781D01*
X152043969Y-79471593D01*
X152070906Y-79552406D01*
X152070906Y-79606280D01*
X152043969Y-79687093D01*
X151828470Y-79902592D01*
X152124781Y-79121407D02*
X152124781Y-79067532D01*
X152151719Y-78986720D01*
X152286406Y-78852033D01*
X152367218Y-78825096D01*
X152421093Y-78825096D01*
X152501905Y-78852033D01*
X152555780Y-78905908D01*
X152609654Y-79013658D01*
X152609654Y-79660155D01*
X152959841Y-79309969D01*
X153498589Y-78771221D02*
X153175340Y-79094470D01*
X153336964Y-78932845D02*
X152771279Y-78367160D01*
X152798216Y-78501847D01*
X152798216Y-78609597D01*
X152771279Y-78690409D01*
X124773722Y-85480592D02*
X124692910Y-85507529D01*
X124612097Y-85588341D01*
X124558223Y-85696091D01*
X124558223Y-85803841D01*
X124585160Y-85884653D01*
X124665972Y-86019340D01*
X124746784Y-86100152D01*
X124881471Y-86180964D01*
X124962284Y-86207902D01*
X125070033Y-86207902D01*
X125177783Y-86154027D01*
X125231658Y-86100152D01*
X125285532Y-85992402D01*
X125285532Y-85938528D01*
X125096971Y-85749966D01*
X124989221Y-85857715D01*
X125581844Y-85749966D02*
X125016158Y-85184280D01*
X125231658Y-84968781D01*
X125312470Y-84941844D01*
X125366345Y-84941844D01*
X125447157Y-84968781D01*
X125527969Y-85049593D01*
X125554906Y-85130406D01*
X125554906Y-85184280D01*
X125527969Y-85265093D01*
X125312470Y-85480592D01*
X126443841Y-84887969D02*
X126120592Y-85211218D01*
X126282216Y-85049593D02*
X125716531Y-84483908D01*
X125743468Y-84618595D01*
X125743468Y-84726345D01*
X125716531Y-84807157D01*
X126147529Y-84160659D02*
X126147529Y-84106784D01*
X126174467Y-84025972D01*
X126309154Y-83891285D01*
X126389966Y-83864348D01*
X126443841Y-83864348D01*
X126524653Y-83891285D01*
X126578528Y-83945160D01*
X126632402Y-84052910D01*
X126632402Y-84699407D01*
X126982589Y-84349221D01*
X125705096Y-61843218D02*
X125624284Y-61870155D01*
X125543471Y-61950967D01*
X125489597Y-62058717D01*
X125489597Y-62166467D01*
X125516534Y-62247279D01*
X125597346Y-62381966D01*
X125678158Y-62462778D01*
X125812845Y-62543590D01*
X125893658Y-62570528D01*
X126001407Y-62570528D01*
X126109157Y-62516653D01*
X126163032Y-62462778D01*
X126216906Y-62355028D01*
X126216906Y-62301154D01*
X126028345Y-62112592D01*
X125920595Y-62220341D01*
X126513218Y-62112592D02*
X125947532Y-61546906D01*
X126163032Y-61331407D01*
X126243844Y-61304470D01*
X126297719Y-61304470D01*
X126378531Y-61331407D01*
X126459343Y-61412219D01*
X126486280Y-61493032D01*
X126486280Y-61546906D01*
X126459343Y-61627719D01*
X126243844Y-61843218D01*
X126782592Y-60711847D02*
X126513218Y-60981221D01*
X126755654Y-61277532D01*
X126755654Y-61223658D01*
X126782592Y-61142845D01*
X126917279Y-61008158D01*
X126998091Y-60981221D01*
X127051966Y-60981221D01*
X127132778Y-61008158D01*
X127267465Y-61142845D01*
X127294402Y-61223658D01*
X127294402Y-61277532D01*
X127267465Y-61358345D01*
X127132778Y-61493032D01*
X127051966Y-61519969D01*
X126998091Y-61519969D01*
X125705096Y-66923218D02*
X125624284Y-66950155D01*
X125543471Y-67030967D01*
X125489597Y-67138717D01*
X125489597Y-67246467D01*
X125516534Y-67327279D01*
X125597346Y-67461966D01*
X125678158Y-67542778D01*
X125812845Y-67623590D01*
X125893658Y-67650528D01*
X126001407Y-67650528D01*
X126109157Y-67596653D01*
X126163032Y-67542778D01*
X126216906Y-67435028D01*
X126216906Y-67381154D01*
X126028345Y-67192592D01*
X125920595Y-67300341D01*
X126513218Y-67192592D02*
X125947532Y-66626906D01*
X126163032Y-66411407D01*
X126243844Y-66384470D01*
X126297719Y-66384470D01*
X126378531Y-66411407D01*
X126459343Y-66492219D01*
X126486280Y-66573032D01*
X126486280Y-66626906D01*
X126459343Y-66707719D01*
X126243844Y-66923218D01*
X126755654Y-65818784D02*
X126647905Y-65926534D01*
X126620967Y-66007346D01*
X126620967Y-66061221D01*
X126647905Y-66195908D01*
X126728717Y-66330595D01*
X126944216Y-66546094D01*
X127025028Y-66573032D01*
X127078903Y-66573032D01*
X127159715Y-66546094D01*
X127267465Y-66438345D01*
X127294402Y-66357532D01*
X127294402Y-66303658D01*
X127267465Y-66222845D01*
X127132778Y-66088158D01*
X127051966Y-66061221D01*
X126998091Y-66061221D01*
X126917279Y-66088158D01*
X126809529Y-66195908D01*
X126782592Y-66276720D01*
X126782592Y-66330595D01*
X126809529Y-66411407D01*
X125605096Y-49133218D02*
X125524284Y-49160155D01*
X125443471Y-49240967D01*
X125389597Y-49348717D01*
X125389597Y-49456467D01*
X125416534Y-49537279D01*
X125497346Y-49671966D01*
X125578158Y-49752778D01*
X125712845Y-49833590D01*
X125793658Y-49860528D01*
X125901407Y-49860528D01*
X126009157Y-49806653D01*
X126063032Y-49752778D01*
X126116906Y-49645028D01*
X126116906Y-49591154D01*
X125928345Y-49402592D01*
X125820595Y-49510341D01*
X126413218Y-49402592D02*
X125847532Y-48836906D01*
X126063032Y-48621407D01*
X126143844Y-48594470D01*
X126197719Y-48594470D01*
X126278531Y-48621407D01*
X126359343Y-48702219D01*
X126386280Y-48783032D01*
X126386280Y-48836906D01*
X126359343Y-48917719D01*
X126143844Y-49133218D01*
X127275215Y-48540595D02*
X126951966Y-48863844D01*
X127113590Y-48702219D02*
X126547905Y-48136534D01*
X126574842Y-48271221D01*
X126574842Y-48378971D01*
X126547905Y-48459783D01*
X151114131Y-54570308D02*
X151464317Y-54220122D01*
X151491255Y-54624183D01*
X151572067Y-54543370D01*
X151652879Y-54516433D01*
X151706754Y-54516433D01*
X151787566Y-54543370D01*
X151922253Y-54678057D01*
X151949190Y-54758870D01*
X151949190Y-54812744D01*
X151922253Y-54893557D01*
X151760629Y-55055181D01*
X151679816Y-55082118D01*
X151625942Y-55082118D01*
X151625942Y-54058497D02*
X152380189Y-54435621D01*
X152003065Y-53681374D01*
X152137752Y-53546687D02*
X152487938Y-53196500D01*
X152514876Y-53600561D01*
X152595688Y-53519749D01*
X152676500Y-53492812D01*
X152730375Y-53492812D01*
X152811187Y-53519749D01*
X152945874Y-53654436D01*
X152972812Y-53735248D01*
X152972812Y-53789123D01*
X152945874Y-53869935D01*
X152784250Y-54031560D01*
X152703438Y-54058497D01*
X152649563Y-54058497D01*
X153215248Y-53708311D02*
X153646247Y-53277312D01*
X153430748Y-52792439D02*
X153619309Y-52603877D01*
X153996433Y-52819377D02*
X153727059Y-53088751D01*
X153161374Y-52523065D01*
X153430748Y-52253691D01*
X154238870Y-52576940D02*
X153673184Y-52011255D01*
X154562118Y-52253691D01*
X153996433Y-51688006D01*
X151343597Y-65352964D02*
X151612971Y-65083590D01*
X151451346Y-65568463D02*
X151074223Y-64814216D01*
X151828470Y-65191340D01*
X151774595Y-64167719D02*
X151693783Y-64194656D01*
X151612971Y-64275468D01*
X151559096Y-64383218D01*
X151559096Y-64490967D01*
X151586033Y-64571780D01*
X151666845Y-64706467D01*
X151747658Y-64787279D01*
X151882345Y-64868091D01*
X151963157Y-64895028D01*
X152070906Y-64895028D01*
X152178656Y-64841154D01*
X152232531Y-64787279D01*
X152286406Y-64679529D01*
X152286406Y-64625654D01*
X152097844Y-64437093D01*
X151990094Y-64544842D01*
X152582717Y-64437093D02*
X152017032Y-63871407D01*
X152905966Y-64113844D01*
X152340280Y-63548158D01*
X153175340Y-63844470D02*
X152609654Y-63278784D01*
X152744341Y-63144097D01*
X152852091Y-63090223D01*
X152959841Y-63090223D01*
X153040653Y-63117160D01*
X153175340Y-63197972D01*
X153256152Y-63278784D01*
X153336964Y-63413471D01*
X153363902Y-63494284D01*
X153363902Y-63602033D01*
X153310027Y-63709783D01*
X153175340Y-63844470D01*
X125181722Y-79892592D02*
X125100910Y-79919529D01*
X125020097Y-80000341D01*
X124966223Y-80108091D01*
X124966223Y-80215841D01*
X124993160Y-80296653D01*
X125073972Y-80431340D01*
X125154784Y-80512152D01*
X125289471Y-80592964D01*
X125370284Y-80619902D01*
X125478033Y-80619902D01*
X125585783Y-80566027D01*
X125639658Y-80512152D01*
X125693532Y-80404402D01*
X125693532Y-80350528D01*
X125504971Y-80161966D01*
X125397221Y-80269715D01*
X125989844Y-80161966D02*
X125424158Y-79596280D01*
X125639658Y-79380781D01*
X125720470Y-79353844D01*
X125774345Y-79353844D01*
X125855157Y-79380781D01*
X125935969Y-79461593D01*
X125962906Y-79542406D01*
X125962906Y-79596280D01*
X125935969Y-79677093D01*
X125720470Y-79892592D01*
X126851841Y-79299969D02*
X126528592Y-79623218D01*
X126690216Y-79461593D02*
X126124531Y-78895908D01*
X126151468Y-79030595D01*
X126151468Y-79138345D01*
X126124531Y-79219157D01*
X126636341Y-78384097D02*
X126690216Y-78330223D01*
X126771028Y-78303285D01*
X126824903Y-78303285D01*
X126905715Y-78330223D01*
X127040402Y-78411035D01*
X127175089Y-78545722D01*
X127255902Y-78680409D01*
X127282839Y-78761221D01*
X127282839Y-78815096D01*
X127255902Y-78895908D01*
X127202027Y-78949783D01*
X127121215Y-78976720D01*
X127067340Y-78976720D01*
X126986528Y-78949783D01*
X126851841Y-78868971D01*
X126717154Y-78734284D01*
X126636341Y-78599597D01*
X126609404Y-78518784D01*
X126609404Y-78464910D01*
X126636341Y-78384097D01*
%TO.C,J5*%
X114982666Y-81978380D02*
X114982666Y-82692666D01*
X114935047Y-82835523D01*
X114839809Y-82930761D01*
X114696952Y-82978380D01*
X114601714Y-82978380D01*
X115935047Y-81978380D02*
X115458857Y-81978380D01*
X115411238Y-82454571D01*
X115458857Y-82406952D01*
X115554095Y-82359333D01*
X115792190Y-82359333D01*
X115887428Y-82406952D01*
X115935047Y-82454571D01*
X115982666Y-82549809D01*
X115982666Y-82787904D01*
X115935047Y-82883142D01*
X115887428Y-82930761D01*
X115792190Y-82978380D01*
X115554095Y-82978380D01*
X115458857Y-82930761D01*
X115411238Y-82883142D01*
%TO.C,R3*%
X139025333Y-64714380D02*
X138692000Y-64238190D01*
X138453904Y-64714380D02*
X138453904Y-63714380D01*
X138834857Y-63714380D01*
X138930095Y-63762000D01*
X138977714Y-63809619D01*
X139025333Y-63904857D01*
X139025333Y-64047714D01*
X138977714Y-64142952D01*
X138930095Y-64190571D01*
X138834857Y-64238190D01*
X138453904Y-64238190D01*
X139358666Y-63714380D02*
X139977714Y-63714380D01*
X139644380Y-64095333D01*
X139787238Y-64095333D01*
X139882476Y-64142952D01*
X139930095Y-64190571D01*
X139977714Y-64285809D01*
X139977714Y-64523904D01*
X139930095Y-64619142D01*
X139882476Y-64666761D01*
X139787238Y-64714380D01*
X139501523Y-64714380D01*
X139406285Y-64666761D01*
X139358666Y-64619142D01*
%TO.C,SW1*%
X175704666Y-47208761D02*
X175847523Y-47256380D01*
X176085619Y-47256380D01*
X176180857Y-47208761D01*
X176228476Y-47161142D01*
X176276095Y-47065904D01*
X176276095Y-46970666D01*
X176228476Y-46875428D01*
X176180857Y-46827809D01*
X176085619Y-46780190D01*
X175895142Y-46732571D01*
X175799904Y-46684952D01*
X175752285Y-46637333D01*
X175704666Y-46542095D01*
X175704666Y-46446857D01*
X175752285Y-46351619D01*
X175799904Y-46304000D01*
X175895142Y-46256380D01*
X176133238Y-46256380D01*
X176276095Y-46304000D01*
X176609428Y-46256380D02*
X176847523Y-47256380D01*
X177038000Y-46542095D01*
X177228476Y-47256380D01*
X177466571Y-46256380D01*
X178371333Y-47256380D02*
X177799904Y-47256380D01*
X178085619Y-47256380D02*
X178085619Y-46256380D01*
X177990380Y-46399238D01*
X177895142Y-46494476D01*
X177799904Y-46542095D01*
D11*
%TO.C,R6*%
X160306000Y-72036000D02*
X160306000Y-74776000D01*
X159536000Y-73406000D02*
X160306000Y-73406000D01*
X167616000Y-73406000D02*
X166846000Y-73406000D01*
X160306000Y-74776000D02*
X166846000Y-74776000D01*
X166846000Y-72036000D02*
X160306000Y-72036000D01*
X166846000Y-74776000D02*
X166846000Y-72036000D01*
%TO.C,J3*%
X116138000Y-39818000D02*
X116138000Y-41148000D01*
X113478000Y-42418000D02*
X113478000Y-50098000D01*
X116138000Y-42418000D02*
X116138000Y-50098000D01*
X114808000Y-39818000D02*
X116138000Y-39818000D01*
X113478000Y-50098000D02*
X116138000Y-50098000D01*
X113478000Y-42418000D02*
X116138000Y-42418000D01*
%TO.C,R5*%
X160560000Y-70966000D02*
X167100000Y-70966000D01*
X160560000Y-68226000D02*
X160560000Y-70966000D01*
X159790000Y-69596000D02*
X160560000Y-69596000D01*
X167870000Y-69596000D02*
X167100000Y-69596000D01*
X167100000Y-70966000D02*
X167100000Y-68226000D01*
X167100000Y-68226000D02*
X160560000Y-68226000D01*
%TO.C,J4*%
X166986000Y-95373000D02*
X166636000Y-95373000D01*
X175616000Y-95407765D02*
X166986000Y-95407765D01*
X175616000Y-81703000D02*
X166986000Y-81703000D01*
X166986000Y-97063000D02*
X166986000Y-81703000D01*
X166986000Y-85933000D02*
X166576000Y-85933000D01*
X175616000Y-91923000D02*
X166986000Y-91923000D01*
X175616000Y-94581100D02*
X166986000Y-94581100D01*
X175616000Y-84303000D02*
X166986000Y-84303000D01*
X175616000Y-94463000D02*
X166986000Y-94463000D01*
X175616000Y-86843000D02*
X166986000Y-86843000D01*
X175616000Y-94699195D02*
X166986000Y-94699195D01*
X175616000Y-96234430D02*
X166986000Y-96234430D01*
X175616000Y-89383000D02*
X166986000Y-89383000D01*
X175616000Y-96824905D02*
X166986000Y-96824905D01*
X175616000Y-95643955D02*
X166986000Y-95643955D01*
X166986000Y-96093000D02*
X166636000Y-96093000D01*
X175616000Y-94817290D02*
X166986000Y-94817290D01*
X175616000Y-95053480D02*
X166986000Y-95053480D01*
X165526000Y-97063000D02*
X164416000Y-97063000D01*
X175616000Y-95525860D02*
X166986000Y-95525860D01*
X175616000Y-95171575D02*
X166986000Y-95171575D01*
X175616000Y-96943000D02*
X166986000Y-96943000D01*
X166986000Y-85213000D02*
X166576000Y-85213000D01*
X166986000Y-83393000D02*
X166576000Y-83393000D01*
X166986000Y-82673000D02*
X166576000Y-82673000D01*
X175616000Y-96706810D02*
X166986000Y-96706810D01*
X175616000Y-95762050D02*
X166986000Y-95762050D01*
X175616000Y-97063000D02*
X166986000Y-97063000D01*
X166986000Y-93553000D02*
X166576000Y-93553000D01*
X175616000Y-96116335D02*
X166986000Y-96116335D01*
X175616000Y-97063000D02*
X175616000Y-81703000D01*
X175616000Y-95880145D02*
X166986000Y-95880145D01*
X166986000Y-87753000D02*
X166576000Y-87753000D01*
X175616000Y-96352525D02*
X166986000Y-96352525D01*
X175616000Y-94935385D02*
X166986000Y-94935385D01*
X175616000Y-95289670D02*
X166986000Y-95289670D01*
X166986000Y-88473000D02*
X166576000Y-88473000D01*
X166986000Y-90293000D02*
X166576000Y-90293000D01*
X166986000Y-92833000D02*
X166576000Y-92833000D01*
X175616000Y-96588715D02*
X166986000Y-96588715D01*
X164416000Y-97063000D02*
X164416000Y-95733000D01*
X175616000Y-96470620D02*
X166986000Y-96470620D01*
X166986000Y-91013000D02*
X166576000Y-91013000D01*
X175616000Y-95998240D02*
X166986000Y-95998240D01*
%TO.C,J6*%
X143610000Y-110796000D02*
X143610000Y-117296000D01*
X124330000Y-118606000D02*
X124330000Y-109486000D01*
X144910000Y-109486000D02*
X144910000Y-118606000D01*
X124330000Y-109486000D02*
X144910000Y-109486000D01*
X136670000Y-117296000D02*
X136670000Y-117296000D01*
X143610000Y-117296000D02*
X136670000Y-117296000D01*
X129540000Y-118996000D02*
X129040000Y-119996000D01*
X129040000Y-119996000D02*
X130040000Y-119996000D01*
X125630000Y-117296000D02*
X125630000Y-110796000D01*
X130040000Y-119996000D02*
X129540000Y-118996000D01*
X132570000Y-117296000D02*
X125630000Y-117296000D01*
X136670000Y-117296000D02*
X136670000Y-118606000D01*
X125630000Y-110796000D02*
X143610000Y-110796000D01*
X144910000Y-118606000D02*
X124330000Y-118606000D01*
X132570000Y-118606000D02*
X132570000Y-117296000D01*
%TO.C,R4*%
X167100000Y-63654000D02*
X160560000Y-63654000D01*
X160560000Y-63654000D02*
X160560000Y-66394000D01*
X167100000Y-66394000D02*
X167100000Y-63654000D01*
X160560000Y-66394000D02*
X167100000Y-66394000D01*
X159790000Y-65024000D02*
X160560000Y-65024000D01*
X167870000Y-65024000D02*
X167100000Y-65024000D01*
%TO.C,J1*%
X116900000Y-89094000D02*
X116900000Y-90424000D01*
X114240000Y-91694000D02*
X116900000Y-91694000D01*
X115570000Y-89094000D02*
X116900000Y-89094000D01*
X114240000Y-91694000D02*
X114240000Y-106994000D01*
X116900000Y-91694000D02*
X116900000Y-106994000D01*
X114240000Y-106994000D02*
X116900000Y-106994000D01*
%TO.C,SW2*%
X164302000Y-47804000D02*
X159802000Y-47804000D01*
X158552000Y-50304000D02*
X158552000Y-51804000D01*
X159802000Y-54304000D02*
X164302000Y-54304000D01*
X165552000Y-51804000D02*
X165552000Y-50304000D01*
%TO.C,D1*%
X174985000Y-72029000D02*
X175450000Y-72029000D01*
X177610000Y-72029000D02*
X178075000Y-72029000D01*
X177610000Y-71723684D02*
G75*
G03*
X177610429Y-67214521I-1080000J2254684D01*
G01*
X175449571Y-67214521D02*
G75*
G03*
X175450000Y-71723684I1080429J-2254479D01*
G01*
X175449173Y-66681186D02*
G75*
G03*
X174985170Y-72029000I1080826J-2787814D01*
G01*
X178074830Y-72029000D02*
G75*
G03*
X177610827Y-66681185I-1544831J2560000D01*
G01*
%TO.C,R1*%
X142716000Y-61060000D02*
X142716000Y-58320000D01*
X135406000Y-59690000D02*
X136176000Y-59690000D01*
X143486000Y-59690000D02*
X142716000Y-59690000D01*
X142716000Y-58320000D02*
X136176000Y-58320000D01*
X136176000Y-61060000D02*
X142716000Y-61060000D01*
X136176000Y-58320000D02*
X136176000Y-61060000D01*
%TO.C,R2*%
X142462000Y-75538000D02*
X142462000Y-72798000D01*
X135922000Y-75538000D02*
X142462000Y-75538000D01*
X142462000Y-72798000D02*
X135922000Y-72798000D01*
X135922000Y-72798000D02*
X135922000Y-75538000D01*
X143232000Y-74168000D02*
X142462000Y-74168000D01*
X135152000Y-74168000D02*
X135922000Y-74168000D01*
%TO.C,U1*%
X149692000Y-70412000D02*
X149692000Y-70812000D01*
X128692000Y-72912000D02*
X128692000Y-73312000D01*
X128692000Y-83112000D02*
X128692000Y-83512000D01*
X149692000Y-80612000D02*
X149692000Y-81012000D01*
X149692000Y-88212000D02*
X149692000Y-88612000D01*
X128692000Y-62812000D02*
X128692000Y-63212000D01*
X149692000Y-62812000D02*
X149692000Y-63212000D01*
X128692000Y-52612000D02*
X128692000Y-53012000D01*
X128692000Y-47512000D02*
X128692000Y-47912000D01*
X149692000Y-50112000D02*
X149692000Y-50512000D01*
X149692000Y-78012000D02*
X149692000Y-78412000D01*
X149692000Y-55212000D02*
X149692000Y-55612000D01*
X135492000Y-96112000D02*
X128692000Y-96112000D01*
X128692000Y-50112000D02*
X128692000Y-50512000D01*
X149692000Y-52612000D02*
X149692000Y-53012000D01*
X149692000Y-96112000D02*
X142892000Y-96112000D01*
X149692000Y-75512000D02*
X149692000Y-75912000D01*
X149692000Y-65312000D02*
X149692000Y-65712000D01*
X128692000Y-80612000D02*
X128692000Y-81012000D01*
X149692000Y-60212000D02*
X149692000Y-60612000D01*
X128692000Y-67912000D02*
X128692000Y-68312000D01*
X128692000Y-88212000D02*
X128692000Y-88612000D01*
X149692000Y-57712000D02*
X149692000Y-58112000D01*
X128692000Y-45112000D02*
X128692000Y-45412000D01*
X149692000Y-93312000D02*
X149692000Y-93712000D01*
X128692000Y-70412000D02*
X128692000Y-70812000D01*
X149692000Y-47512000D02*
X149692000Y-47912000D01*
X149692000Y-83112000D02*
X149692000Y-83512000D01*
X128692000Y-57712000D02*
X128692000Y-58112000D01*
X128692000Y-90712000D02*
X128692000Y-91112000D01*
X128692000Y-78012000D02*
X128692000Y-78412000D01*
X128692000Y-93312000D02*
X128692000Y-93712000D01*
X149692000Y-45112000D02*
X149692000Y-45412000D01*
X149692000Y-85712000D02*
X149692000Y-86112000D01*
X131699000Y-47779000D02*
X131699000Y-45112000D01*
X128692000Y-47779000D02*
X131699000Y-47779000D01*
X137692000Y-96112000D02*
X138092000Y-96112000D01*
X149692000Y-90712000D02*
X149692000Y-91112000D01*
X128692000Y-45112000D02*
X149692000Y-45112000D01*
X128692000Y-55212000D02*
X128692000Y-55612000D01*
X128692000Y-75512000D02*
X128692000Y-75912000D01*
X140292000Y-96112000D02*
X140692000Y-96112000D01*
X149692000Y-67912000D02*
X149692000Y-68312000D01*
X128692000Y-60212000D02*
X128692000Y-60612000D01*
X128692000Y-85712000D02*
X128692000Y-86112000D01*
X128692000Y-65312000D02*
X128692000Y-65712000D01*
X149692000Y-72912000D02*
X149692000Y-73312000D01*
%TO.C,J5*%
X113986000Y-78486000D02*
X113986000Y-63186000D01*
X116646000Y-63186000D02*
X113986000Y-63186000D01*
X113986000Y-81086000D02*
X113986000Y-79756000D01*
X115316000Y-81086000D02*
X113986000Y-81086000D01*
X116646000Y-78486000D02*
X116646000Y-63186000D01*
X116646000Y-78486000D02*
X113986000Y-78486000D01*
%TO.C,R3*%
X142462000Y-69950000D02*
X142462000Y-67210000D01*
X135152000Y-68580000D02*
X135922000Y-68580000D01*
X135922000Y-69950000D02*
X142462000Y-69950000D01*
X135922000Y-67210000D02*
X135922000Y-69950000D01*
X143232000Y-68580000D02*
X142462000Y-68580000D01*
X142462000Y-67210000D02*
X135922000Y-67210000D01*
%TO.C,SW1*%
X173538000Y-50304000D02*
X173538000Y-51804000D01*
X179288000Y-47804000D02*
X174788000Y-47804000D01*
X174788000Y-54304000D02*
X179288000Y-54304000D01*
X180538000Y-51804000D02*
X180538000Y-50304000D01*
%TD*%
M02*
